<svg xmlns="http://www.w3.org/2000/svg" width="56.206" height="77" viewBox="0 0 64.206 77">
    <g>
        <path fill="none" stroke="#bf987a" stroke-dasharray="25 5" stroke-width="2px" d="M-27.373-23.862a40.077 40.077 0 0 1-10.182-1.292 22.28 22.28 0 0 1-8.109-3.752q.122 1.722.183 3.629t.061 3.875V7.5h-12.438v-29.886q0-7.38-.366-12.73t-1.1-9.656q-.732-4.3-1.768-8.18t-2.256-8.3l11.828-4.305q1.585 5.535 2.622 10.025t2.134 9.164a16.3 16.3 0 0 0 2.134 4.92q1.28 1.845 5.06 3.2a11.009 11.009 0 0 1-2.195-4.981 31.643 31.643 0 0 1-.366-4.49A17.027 17.027 0 0 1-40.6-54.8a18.39 18.39 0 0 1 4.2-5.9 20.89 20.89 0 0 1 6.4-4.059 20.7 20.7 0 0 1 7.992-1.541 32.612 32.612 0 0 1 6.219.615 40.959 40.959 0 0 1 7.194 2.214l-3.658 12.3a42.91 42.91 0 0 0-5.487-1.661 20.936 20.936 0 0 0-4.268-.431 8.975 8.975 0 0 0-6.28 2.275 7.686 7.686 0 0 0-2.5 5.966 8.2 8.2 0 0 0 2.134 5.842 6.841 6.841 0 0 0 5.183 2.28 26.515 26.515 0 0 0 7.316-1.046q3.658-1.045 7.682-2.644L-5.3-29.274a59.172 59.172 0 0 1-11.767 4.243 46.725 46.725 0 0 1-10.306 1.169z" transform="translate(1.206 1) translate(63.345 66.297)"/>
        <path fill="#bf987a" d="M-27.373-23.862a40.077 40.077 0 0 1-10.182-1.292 22.28 22.28 0 0 1-8.109-3.752q.122 1.722.183 3.629t.061 3.875V7.5h-12.438v-29.886q0-7.38-.366-12.73t-1.1-9.656q-.732-4.3-1.768-8.18t-2.256-8.3l11.828-4.305q1.585 5.535 2.622 10.025t2.134 9.164a16.3 16.3 0 0 0 2.134 4.92q1.28 1.845 5.06 3.2a11.009 11.009 0 0 1-2.195-4.981 31.643 31.643 0 0 1-.366-4.49A17.027 17.027 0 0 1-40.6-54.8a18.39 18.39 0 0 1 4.2-5.9 20.89 20.89 0 0 1 6.4-4.059 20.7 20.7 0 0 1 7.992-1.541 32.612 32.612 0 0 1 6.219.615 40.959 40.959 0 0 1 7.194 2.214l-3.658 12.3a42.91 42.91 0 0 0-5.487-1.661 20.936 20.936 0 0 0-4.268-.431 8.975 8.975 0 0 0-6.28 2.275 7.686 7.686 0 0 0-2.5 5.966 8.2 8.2 0 0 0 2.134 5.842 6.841 6.841 0 0 0 5.183 2.28 26.515 26.515 0 0 0 7.316-1.046q3.658-1.045 7.682-2.644L-5.3-29.274a59.172 59.172 0 0 1-11.767 4.243 46.725 46.725 0 0 1-10.306 1.169z" transform="translate(1.206 1) translate(68.302 68.497)"/>
    </g>
</svg>
