<svg xmlns="http://www.w3.org/2000/svg" width="40.207" height="77.346" viewBox="0 0 47.207 77.346">
    <g>
        <g>
            <path fill="none" stroke="#bf987a" stroke-dasharray="25 5" stroke-width="2px" d="M-23.172-28.659q-5.5 0-8.309-2.952.244 2.337.367 4.858t.122 5.351V7.5h-12.463v-29.886q0-7.38-.367-12.73t-1.1-9.656q-.733-4.3-1.772-8.18t-2.261-8.3l11.855-4.307q1.1 4.305 2.016 7.749t1.894 7.134q.489 1.722 1.1 3.321a9.624 9.624 0 0 0 1.59 2.767 7.058 7.058 0 0 0 2.383 1.845 8 8 0 0 0 3.482.677 7.3 7.3 0 0 0 5.315-1.845 6.248 6.248 0 0 0 1.894-4.674q0-3.813-2.077-14.268l11.975-2.706q.974 4.551 1.528 9.04a68.629 68.629 0 0 1 .55 8.3 23.646 23.646 0 0 1-1.283 7.934 18.858 18.858 0 0 1-3.544 6.211 15.269 15.269 0 0 1-5.56 4 18.42 18.42 0 0 1-7.335 1.415z" transform="translate(1.207 1.315) translate(0 .031) translate(48.954 65.528)"/>
        </g>
        <path fill="#bf987a" d="M-23.162-28.659q-5.5 0-8.312-2.952.244 2.337.367 4.858t.122 5.351V7.5h-12.468v-29.886q0-7.38-.367-12.73t-1.1-9.656q-.733-4.3-1.772-8.18t-2.261-8.3l11.853-4.307q1.1 4.305 2.017 7.749t1.895 7.134q.489 1.722 1.1 3.321a9.623 9.623 0 0 0 1.588 2.767 7.06 7.06 0 0 0 2.384 1.845 8 8 0 0 0 3.484.677 7.3 7.3 0 0 0 5.317-1.845 6.247 6.247 0 0 0 1.895-4.674q0-3.813-2.078-14.268l11.979-2.706q.978 4.551 1.528 9.041a68.6 68.6 0 0 1 .55 8.3 23.639 23.639 0 0 1-1.283 7.934 18.856 18.856 0 0 1-3.545 6.211 15.274 15.274 0 0 1-5.562 4 18.433 18.433 0 0 1-7.331 1.414z" transform="translate(1.207 1.315) translate(51.438 68.528)"/>
    </g>
</svg>
