<svg xmlns="http://www.w3.org/2000/svg" width="70" height="79.4" viewBox="0 0 70 79.4">
    <g>
        <path fill="none" stroke="#bf987a" stroke-dasharray="25 5" stroke-width="2px" d="M-69.741-10.578a38.011 38.011 0 0 1 .921-8.057 39.787 39.787 0 0 1 3.5-9.348 88.794 88.794 0 0 1 7.125-11.439q4.546-6.334 11.671-14.453l-5.035-4.425 7.617-9.1a216.373 216.373 0 0 1 19.533 17.708A93.712 93.712 0 0 1-12.8-35.24a45.68 45.68 0 0 1 5.59 12.054 40.41 40.41 0 0 1 1.475 10.517 23.284 23.284 0 0 1-1.659 9.1 19.164 19.164 0 0 1-4.361 6.519 18.081 18.081 0 0 1-6.081 3.875 18.963 18.963 0 0 1-6.818 1.291 18.044 18.044 0 0 1-7.863-1.537 16.82 16.82 0 0 1-5.651-4.49 15.67 15.67 0 0 1-6.265 4.551 19.4 19.4 0 0 1-7.248 1.476q-8.477 0-13.268-5.043t-4.792-13.651zm51.966-2.46a26.783 26.783 0 0 0-.737-5.842A30.25 30.25 0 0 0-21.4-26.2a55.054 55.054 0 0 0-6.2-8.979A100.558 100.558 0 0 0-38.291-46Q-48.61-35.055-53.217-27.06t-4.607 13.653a8.8 8.8 0 0 0 1.9 5.843 6.875 6.875 0 0 0 5.59 2.276 8.72 8.72 0 0 0 5.467-1.845q2.4-1.845 2.4-6.642v-7.38h11.057v5.9a26.8 26.8 0 0 1-.246 3.875 18.474 18.474 0 0 1-.737 3.137 9.561 9.561 0 0 0 7 2.952 7.518 7.518 0 0 0 5.469-2.089 7.528 7.528 0 0 0 2.149-5.658z" transform="translate(1 1.4) translate(69.741 67.404)"/>
        <path fill="#bf987a" d="M-69.741-10.578a38.011 38.011 0 0 1 .921-8.057 39.787 39.787 0 0 1 3.5-9.348 88.794 88.794 0 0 1 7.125-11.439q4.546-6.334 11.671-14.453l-5.035-4.425 7.617-9.1a216.373 216.373 0 0 1 19.533 17.708A93.712 93.712 0 0 1-12.8-35.24a45.68 45.68 0 0 1 5.59 12.054 40.41 40.41 0 0 1 1.475 10.517 23.284 23.284 0 0 1-1.659 9.1 19.164 19.164 0 0 1-4.361 6.519 18.081 18.081 0 0 1-6.081 3.875 18.963 18.963 0 0 1-6.818 1.291 18.044 18.044 0 0 1-7.863-1.537 16.82 16.82 0 0 1-5.651-4.49 15.67 15.67 0 0 1-6.265 4.551 19.4 19.4 0 0 1-7.248 1.476q-8.477 0-13.268-5.043t-4.792-13.651zm51.966-2.46a26.783 26.783 0 0 0-.737-5.842A30.25 30.25 0 0 0-21.4-26.2a55.054 55.054 0 0 0-6.2-8.979A100.558 100.558 0 0 0-38.291-46Q-48.61-35.055-53.217-27.06t-4.607 13.653a8.8 8.8 0 0 0 1.9 5.843 6.875 6.875 0 0 0 5.59 2.276 8.72 8.72 0 0 0 5.467-1.845q2.4-1.845 2.4-6.642v-7.38h11.057v5.9a26.8 26.8 0 0 1-.246 3.875 18.474 18.474 0 0 1-.737 3.137 9.561 9.561 0 0 0 7 2.952 7.518 7.518 0 0 0 5.469-2.089 7.528 7.528 0 0 0 2.149-5.658z" transform="translate(1 1.4) translate(74.735 69.882)"/>
    </g>
</svg>
