<svg xmlns="http://www.w3.org/2000/svg" width="20.208" height="77.29" viewBox="0 0 24.208 77.29">
    <g>
        <path fill="none" stroke="#bf987a" stroke-dasharray="25 5" stroke-width="2px" d="M-18.592 7.5v-29.886q0-7.38-.368-12.73t-1.1-9.656q-.735-4.3-1.777-8.18t-2.268-8.3l11.889-4.305q1.593 4.8 2.758 9.287a92.163 92.163 0 0 1 1.9 9.348q.735 4.858 1.1 10.639T-6.09-23V7.5z" transform="translate(1.208 1.29) translate(24.108 65.559)"/>
        <path fill="#bf987a" d="M-18.592 7.5v-29.886q0-7.38-.368-12.73t-1.1-9.656q-.735-4.3-1.777-8.18t-2.268-8.3l11.889-4.305q1.593 4.8 2.758 9.287a92.163 92.163 0 0 1 1.9 9.348q.735 4.858 1.1 10.639T-6.09-23V7.5z" transform="translate(1.208 1.29) translate(29.09 68.497)"/>
    </g>
</svg>
