<svg xmlns="http://www.w3.org/2000/svg" width="54.205" height="77.317" viewBox="0 0 74.205 77.317">
    <g>
        <path fill="none" stroke="#37dba9" stroke-dasharray="25 5" stroke-width="2px" d="M-32.969-65.559q.972 4.551 1.519 9.041a68.993 68.993 0 0 1 .547 8.3q0 .738-.061 1.476a11.125 11.125 0 0 1-.3 1.722 8.81 8.81 0 0 0 3.035 2.22 8.23 8.23 0 0 0 3.281.738 6.771 6.771 0 0 0 5.226-1.968 6.352 6.352 0 0 0 1.822-4.432 83.57 83.57 0 0 0-1.945-14.391l11.789-2.706a88.57 88.57 0 0 1 1.458 9.1 80.205 80.205 0 0 1 .486 8.487 23.331 23.331 0 0 1-1.215 7.688 18.28 18.28 0 0 1-3.464 6.088 15.977 15.977 0 0 1-5.469 4.059 16.863 16.863 0 0 1-7.11 1.476 18.417 18.417 0 0 1-6.624-1.23 16.841 16.841 0 0 1-6.138-4.305 15.7 15.7 0 0 1-5.348 4.121 16.539 16.539 0 0 1-7.049 1.415q-5.469 0-8.264-2.952.243 2.337.365 4.858t.128 5.354V7.5h-12.4v-29.886q0-7.38-.365-12.73t-1.094-9.656q-.729-4.3-1.762-8.18t-2.248-8.3l11.789-4.305q1.094 4.305 2.005 7.749t1.884 7.134q.491 1.72 1.091 3.319a9.637 9.637 0 0 0 1.58 2.768 7.025 7.025 0 0 0 2.37 1.845 7.919 7.919 0 0 0 3.464.677 7.236 7.236 0 0 0 5.286-1.846 6.265 6.265 0 0 0 1.884-4.674q0-3.813-2.066-14.268z" transform="translate(1.205 1.317) translate(74.169 65.559)"/>
        <path fill="#37dba9" d="M-32.969-65.559q.972 4.551 1.519 9.041a68.993 68.993 0 0 1 .547 8.3q0 .738-.061 1.476a11.125 11.125 0 0 1-.3 1.722 8.81 8.81 0 0 0 3.035 2.22 8.23 8.23 0 0 0 3.281.738 6.771 6.771 0 0 0 5.226-1.968 6.352 6.352 0 0 0 1.822-4.432 83.57 83.57 0 0 0-1.945-14.391l11.789-2.706a88.57 88.57 0 0 1 1.458 9.1 80.205 80.205 0 0 1 .486 8.487 23.331 23.331 0 0 1-1.215 7.688 18.28 18.28 0 0 1-3.464 6.088 15.977 15.977 0 0 1-5.469 4.059 16.863 16.863 0 0 1-7.11 1.476 18.417 18.417 0 0 1-6.624-1.23 16.841 16.841 0 0 1-6.138-4.305 15.7 15.7 0 0 1-5.348 4.121 16.539 16.539 0 0 1-7.049 1.415q-5.469 0-8.264-2.952.243 2.337.365 4.858t.128 5.354V7.5h-12.4v-29.886q0-7.38-.365-12.73t-1.094-9.656q-.729-4.3-1.762-8.18t-2.248-8.3l11.789-4.305q1.094 4.305 2.005 7.749t1.884 7.134q.491 1.72 1.091 3.319a9.637 9.637 0 0 0 1.58 2.768 7.025 7.025 0 0 0 2.37 1.845 7.919 7.919 0 0 0 3.464.677 7.236 7.236 0 0 0 5.286-1.846 6.265 6.265 0 0 0 1.884-4.674q0-3.813-2.066-14.268z" transform="translate(1.205 1.317) translate(79.109 68.497)"/>
    </g>
</svg>
