<svg xmlns="http://www.w3.org/2000/svg" width="141.342" height="120" viewBox="0 0 141.342 120">
    <defs>
        <filter id="Path_25190" width="67.454" height="67.574" x="0" y="32.12" filterUnits="userSpaceOnUse">
            <feOffset dy="7"/>
            <feGaussianBlur result="blur" stdDeviation="4"/>
            <feFlood flood-color="#c99a65" flood-opacity=".259"/>
            <feComposite in2="blur" operator="in"/>
            <feComposite in="SourceGraphic"/>
        </filter>
        <filter id="Path_25191" width="64.539" height="64.651" x="75.891" y="35.044" filterUnits="userSpaceOnUse">
            <feOffset dy="7"/>
            <feGaussianBlur result="blur-2" stdDeviation="4"/>
            <feFlood flood-color="#c99a65" flood-opacity=".259"/>
            <feComposite in2="blur-2" operator="in"/>
            <feComposite in="SourceGraphic"/>
        </filter>
        <linearGradient id="linear-gradient" x1=".5" x2=".5" y1=".576" gradientUnits="objectBoundingBox">
            <stop offset="0" stop-color="#d6a15f"/>
            <stop offset="1" stop-color="#ad8b6f"/>
        </linearGradient>
        <style>
            .cls-1,.cls-3,.cls-4,.cls-6{fill:none}.cls-2{fill:url(#linear-gradient)}.cls-3,.cls-4{stroke:#060606}.cls-3,.cls-4,.cls-6{stroke-linecap:round;stroke-width:2px}.cls-4,.cls-6{stroke-linejoin:round}.cls-6{stroke:#fff}
        </style>
    </defs>
    <g id="Icon-BestPrice" transform="translate(1.342)">
        <g id="Group_22630" transform="translate(19)">
            <g id="Rectangle_479" transform="translate(-19.328)">
                <path id="Rectangle_483" d="M0 0H140V120H0z" class="cls-1" transform="translate(.328)"/>
                <path id="Rectangle_484" d="M0 0H139.328V119H0z" class="cls-1" transform="translate(.5 .5)"/>
            </g>
            <g id="Group_22616" transform="translate(-18.962 -4.033)">
                <path id="Path_25190-2" d="M45.839 43.868a31.5 31.5 0 1 1-31.413 31.5 31.458 31.458 0 0 1 31.413-31.5z" class="cls-1" transform="translate(-10.914 -10.835)"/>
                <path id="Path_25190-3" d="M45.839 43.868a31.5 31.5 0 1 1-31.413 31.5 31.458 31.458 0 0 1 31.413-31.5z" class="cls-1" transform="translate(60.171 -10.835)"/>
                <g filter="url(#Path_25190)" transform="translate(-1.38 4.03)">
                    <path id="Path_25190-4" d="M36.153 43.868a21.787 21.787 0 1 1-21.727 21.787 21.758 21.758 0 0 1 21.727-21.787z" class="cls-2" transform="translate(-2.43 -6.75)"/>
                </g>
                <g filter="url(#Path_25191)" transform="translate(-1.38 4.03)">
                    <path id="Path_25191-2" d="M94.6 43.868a20.325 20.325 0 1 1-20.266 20.325A20.3 20.3 0 0 1 94.6 43.868z" class="cls-2" transform="translate(13.56 -3.82)"/>
                </g>
                <g id="Group_22609" transform="translate(2.962 33.033)">
                    <g id="Group-35">
                        <g id="Group-28">
                            <g id="Group-27">
                                <path id="Path_25172" d="M75.135 42.231a31.455 31.455 0 1 1 0 44.606l-22.18-22.3" class="cls-3" transform="translate(6.274 -33.032)"/>
                                <path id="Path_25173" d="M56.554 86.834a31.455 31.455 0 1 1 0-44.606l22.18 22.3" class="cls-3" transform="translate(-2.962 -33.033)"/>
                                <g id="Group_22605" transform="translate(9.648 9.146)">
                                    <path id="Path_25174" d="M52.319 51.416a22.332 22.332 0 1 0 3.118 14.071" class="cls-3" transform="translate(-11.106 -40.732)"/>
                                </g>
                            </g>
                        </g>
                    </g>
                    <g id="Group_22606" transform="translate(25.943 9.262)">
                        <path id="Path_25175" d="M75.548 76.385a22.177 22.177 0 1 0 17.7-35.556" class="cls-4" transform="translate(-15.495 -40.829)"/>
                        <path id="Path_25176" fill="none" stroke="#060606" stroke-dasharray="0 10.083" stroke-linecap="round" stroke-linejoin="round" stroke-width="2px" d="M76.246 76.385A22.111 22.111 0 0 1 71.77 63.07a22.406 22.406 0 0 1 14.186-20.738 21.607 21.607 0 0 1 7.993-1.5" transform="translate(-16.193 -40.829)"/>
                        <g id="Group_22615" transform="translate(-2 11.881)">
                            <g id="Group_22614">
                                <path id="Path_25177" d="M30.063 49.146v2.5" class="cls-6" transform="translate(-25.075 -49.146)"/>
                                <path id="Path_25178" d="M30.063 69.85v-2.5" class="cls-6" transform="translate(-25.075 -49.85)"/>
                                <path id="Path_25179" d="M34.808 55.249a3.732 3.732 0 0 0-3.713-3.5h-2.732a3.511 3.511 0 0 0-.851 6.915l4.673 1.176a3.511 3.511 0 0 1-.851 6.915H28.6a3.733 3.733 0 0 1-3.715-3.508" class="cls-6" transform="translate(-24.86 -49.247)"/>
                            </g>
                        </g>
                        <g id="Group_22615-2" transform="translate(0 11.881)">
                            <g id="Group_22614-2">
                                <path id="Path_25177-2" d="M30.063 49.146v2.5" class="cls-4" transform="translate(-25.075 -49.146)"/>
                                <path id="Path_25178-2" d="M30.063 69.85v-2.5" class="cls-4" transform="translate(-25.075 -49.85)"/>
                                <path id="Path_25179-2" d="M34.808 55.249a3.732 3.732 0 0 0-3.713-3.5h-2.732a3.511 3.511 0 0 0-.851 6.915l4.673 1.176a3.511 3.511 0 0 1-.851 6.915H28.6a3.733 3.733 0 0 1-3.715-3.508" class="cls-4" transform="translate(-24.86 -49.247)"/>
                            </g>
                        </g>
                    </g>
                    <g id="Group_22636" transform="translate(91 19)">
                        <path id="Path_25189" fill="#fff" d="M12.5 0A12.617 12.617 0 1 1 0 12.616 12.558 12.558 0 0 1 12.5 0z" transform="translate(-2 1.268)"/>
                        <g id="Group_22611" transform="translate(.262)">
                            <path id="Path_25171" d="M2163.74 94.268l5.207 5.257 10.583-10.68a12.532 12.532 0 1 0 1.739 7.9" class="cls-3" transform="translate(-2156.532 -82.825)"/>
                        </g>
                    </g>
                </g>
            </g>
        </g>
    </g>
</svg>
