<svg xmlns="http://www.w3.org/2000/svg" id="Icon-StepByStep" width="140" height="120" viewBox="0 0 140 120">
    <defs>
        <filter id="Shape" width="109.618" height="78.177" x="15.029" y="29.612" filterUnits="userSpaceOnUse">
            <feOffset dy="7"/>
            <feGaussianBlur result="blur" stdDeviation="4"/>
            <feFlood flood-color="#c99a65" flood-opacity=".259"/>
            <feComposite in2="blur" operator="in"/>
            <feComposite in="SourceGraphic"/>
        </filter>
        <filter id="Rectangle-Copy-4" width="109.618" height="64.625" x="15.029" y="43.165" filterUnits="userSpaceOnUse">
            <feOffset dy="7"/>
            <feGaussianBlur result="blur-2" stdDeviation="4"/>
            <feFlood flood-color="#c99a65" flood-opacity=".259"/>
            <feComposite in2="blur-2" operator="in"/>
            <feComposite in="SourceGraphic"/>
        </filter>
        <linearGradient id="linear-gradient" x1=".5" x2=".5" y1=".576" gradientUnits="objectBoundingBox">
            <stop offset="0" stop-color="#37dba9"/>
            <stop offset="1" stop-color="#01ad79"/>
        </linearGradient>
        <style>
            .cls-5{fill:none;stroke:#060606;stroke-width:2px;stroke-linecap:round}
        </style>
    </defs>
    <path id="Rectangle_482" fill="none" d="M0 0H140V120H0z"/>
    <g id="Group-4" transform="translate(26 29.173)">
        <g id="Group-3" transform="translate(0 5.51)">
            <path id="Rectangle-Copy-7" fill="#fff" fill-rule="evenodd" d="M10.406 4h67.806c3.618 0 4.931.317 6.253.913A6.909 6.909 0 0 1 87.533 7.5c.708 1.114 1.084 2.219 1.084 5.265v38.29c0 3.047-.377 4.151-1.084 5.265a6.908 6.908 0 0 1-3.068 2.58c-1.322.6-2.635.913-6.253.913H10.406c-3.619 0-4.931-.317-6.254-.913a6.91 6.91 0 0 1-3.068-2.58C.377 55.207 0 54.1 0 51.055V12.762C0 9.715.377 8.61 1.084 7.5a6.911 6.911 0 0 1 3.069-2.587C5.476 4.317 6.788 4 10.406 4z" transform="translate(0 -4)"/>
        </g>
        <g id="Group-3-2" filter="url(#Shape)" transform="translate(-26.001 -29.171)">
            <path id="Shape-2" fill="#fff" stroke="#060606" stroke-width="2px" d="M83.618 24.064v17.689c0 3.625-.377 4.939-1.084 6.264a7.381 7.381 0 0 1-3.068 3.074c-1.322.709-2.635 1.086-6.253 1.086H10.406c-3.619 0-4.931-.377-6.254-1.086a7.382 7.382 0 0 1-3.069-3.074C.377 46.692 0 45.378 0 41.753V24.064m0-12.256v-1.757C0 6.874.377 5.485 1.084 4.16a7.382 7.382 0 0 1 3.069-3.074C5.476.377 6.862 0 10.034 0h63.55c3.172 0 4.559.377 5.881 1.086a7.381 7.381 0 0 1 3.068 3.074c.708 1.325 1.084 2.714 1.084 5.891v1.757" transform="translate(28.03 35.61)"/>
        </g>
        <g id="Group-3-3" filter="url(#Rectangle-Copy-4)" transform="translate(-26.001 -29.169)">
            <path id="Rectangle-Copy-4-2" fill="url(#linear-gradient)" stroke="#060606" stroke-width="2px" d="M10.406 0h62.806c3.618 0 4.931.377 6.253 1.086a7.381 7.381 0 0 1 3.068 3.074c.708 1.325 1.084 2.64 1.084 6.264V28.2c0 3.625-.377 4.939-1.084 6.264a7.381 7.381 0 0 1-3.068 3.074c-1.322.709-2.635 1.086-6.253 1.086H10.406c-3.619 0-4.931-.377-6.254-1.086a7.382 7.382 0 0 1-3.069-3.074C.377 33.14 0 31.825 0 28.2V10.424C0 6.8.377 5.485 1.084 4.16a7.382 7.382 0 0 1 3.069-3.074C5.476.377 6.788 0 10.406 0z" transform="translate(28.03 49.16)"/>
        </g>
        <path id="Line_14" d="M0 0L36.766 0" class="cls-5" transform="translate(37.5 .327)"/>
        <path id="Line_14-2" d="M0 0L21.861 0" class="cls-5" transform="translate(51.5 13.267)"/>
        <path id="Line_14-Copy" d="M0 0L37.76 0" class="cls-5" transform="translate(36.5 36.16)"/>
        <path id="Line_14-Copy-2" d="M0 0L10.93 0" class="cls-5" transform="translate(62.5 41.137)"/>
        <g id="Group_22687" transform="translate(10 29.827)">
            <path id="Path_25189" fill="#fff" d="M9.259 0A9.346 9.346 0 1 1 0 9.345 9.3 9.3 0 0 1 9.259 0z" transform="translate(-2 .939)"/>
            <g id="Group_22611" transform="translate(-.324)">
                <path id="Path_25171" d="M2161.872 91.3l3.857 3.894 7.839-7.912a9.283 9.283 0 1 0 1.288 5.85" class="cls-5" transform="translate(-2156.532 -82.825)"/>
            </g>
        </g>
    </g>
</svg>
