<svg id="Capa_1" enable-background="new 0 0 512 512" fill="#01ad79" height="90" viewBox="0 0 512 512" width="90" xmlns="http://www.w3.org/2000/svg"><g id="XMLID_357_"><path id="XMLID_369_" d="m512 256c0-68.38-26.628-132.667-74.981-181.019-48.352-48.353-112.639-74.981-181.019-74.981s-132.667 26.628-181.019 74.981c-48.353 48.352-74.981 112.639-74.981 181.019s26.628 132.667 74.981 181.019c48.352 48.353 112.639 74.981 181.019 74.981 27.307 0 54.141-4.279 79.834-12.706 16.33 8.126 34.722 12.706 54.166 12.706 67.271 0 122-54.729 122-122 0-19.446-4.581-37.84-12.708-54.17 8.426-25.694 12.708-52.53 12.708-79.83zm-256 236c-130.131 0-236-105.869-236-236s105.869-236 236-236 236 105.869 236 236c0 19.521-2.369 38.781-7.051 57.487-6.906-8.553-14.938-16.159-23.874-22.586 1.937-11.478 2.925-23.19 2.925-34.901 0-114.691-93.309-208-208-208s-208 93.309-208 208 93.309 208 208 208c11.711 0 23.423-.989 34.901-2.926 6.426 8.935 14.031 16.967 22.582 23.872-18.703 4.681-37.959 7.054-57.483 7.054zm186.488-212.118c-15.907-7.613-33.708-11.882-52.488-11.882-67.271 0-122 54.729-122 122 0 18.78 4.269 36.581 11.882 52.489-7.899 1-15.889 1.511-23.882 1.511-103.664 0-188-84.336-188-188s84.336-188 188-188 188 84.336 188 188c0 7.993-.512 15.983-1.512 23.882zm-52.488 212.118c-56.243 0-102-45.757-102-102s45.757-102 102-102 102 45.757 102 102-45.757 102-102 102z"/><path id="XMLID_374_" d="m121.69 256c0-5.523-4.477-10-10-10h-13.69c-5.523 0-10 4.477-10 10s4.477 10 10 10h13.69c5.523 0 10-4.477 10-10z"/><path id="XMLID_375_" d="m375.883 175.21c-4.783 2.761-6.422 8.877-3.66 13.66 1.853 3.208 5.213 5.001 8.669 5.001 1.696 0 3.416-.432 4.991-1.341l11.856-6.845c4.783-2.761 6.422-8.877 3.66-13.66-2.762-4.784-8.878-6.423-13.66-3.66z"/><path id="XMLID_376_" d="m125.931 319.52-11.856 6.845c-4.783 2.761-6.422 8.877-3.66 13.66 1.852 3.208 5.213 5.001 8.669 5.001 1.696 0 3.416-.432 4.991-1.341l11.856-6.845c4.783-2.761 6.422-8.877 3.66-13.66-2.761-4.783-8.878-6.423-13.66-3.66z"/><path id="XMLID_377_" d="m175.275 136.367c1.852 3.208 5.213 5.001 8.669 5.001 1.696 0 3.416-.432 4.991-1.341 4.783-2.761 6.422-8.877 3.66-13.66l-6.845-11.856c-2.761-4.783-8.878-6.422-13.66-3.66-4.783 2.761-6.422 8.877-3.66 13.66z"/><path id="XMLID_378_" d="m339.91 110.85c-4.783-2.761-10.898-1.123-13.66 3.66l-6.845 11.856c-2.762 4.783-1.123 10.899 3.66 13.66 1.575.909 3.294 1.341 4.991 1.341 3.456 0 6.817-1.793 8.669-5.001l6.845-11.856c2.762-4.783 1.122-10.899-3.66-13.66z"/><path id="XMLID_379_" d="m188.671 372.362c-4.781-2.761-10.898-1.122-13.66 3.66l-6.845 11.856c-2.762 4.783-1.123 10.899 3.66 13.66 1.575.909 3.294 1.341 4.991 1.341 3.456 0 6.817-1.793 8.669-5.001l6.845-11.856c2.762-4.782 1.124-10.898-3.66-13.66z"/><path id="XMLID_380_" d="m136.168 175.415-11.856-6.845c-4.781-2.76-10.898-1.122-13.66 3.66-2.762 4.783-1.123 10.899 3.66 13.66l11.856 6.845c1.575.909 3.294 1.341 4.991 1.341 3.456 0 6.817-1.793 8.669-5.001 2.762-4.783 1.123-10.899-3.66-13.66z"/><path id="XMLID_381_" d="m266.103 225.637-.103-127.279c-.004-5.52-4.48-9.992-10-9.992-.002 0-.005 0-.008 0-5.522.004-9.996 4.485-9.992 10.008l.103 127.193c-9.675 3.145-17.323 10.771-20.5 20.432h-41.667c-5.523 0-10 4.477-10 10s4.477 10 10 10h41.667c4.2 12.774 16.218 22 30.397 22 17.673 0 32-14.327 32-32 0-14.141-9.177-26.131-21.897-30.362z"/><path id="XMLID_384_" d="m404.921 379.927c-1.621-.573-3.269-1.167-4.921-1.776v-32.777c3.747 1.434 6.153 3.132 6.302 3.239 4.398 3.284 10.632 2.409 13.952-1.975 3.335-4.402 2.47-10.674-1.932-14.009-.473-.358-7.648-5.685-18.322-8.093v-6.536c0-5.523-4.477-10-10-10s-10 4.477-10 10v6.478c-.935.214-1.875.45-2.825.736-12.088 3.632-21.119 13.948-23.569 26.923-2.248 11.907 1.609 23.424 10.065 30.056 4.186 3.284 9.342 6.285 16.329 9.428v43.704c-5.203-.582-8.896-2.138-14.838-6.026-4.622-3.023-10.82-1.727-13.843 2.894-3.023 4.622-1.728 10.82 2.894 13.843 10.08 6.594 17.086 8.743 25.788 9.368v6.596c0 5.523 4.477 10 10 10s10-4.477 10-10v-7.781c16.686-4.461 27.379-18.807 29.759-32.961 3.136-18.665-6.613-34.889-24.839-41.331zm-28.907-13.471c-2.518-1.975-3.599-6.139-2.755-10.609.678-3.591 2.792-7.799 6.741-10.181v23.498c-1.462-.881-2.806-1.783-3.986-2.708zm34.021 51.486c-.934 5.559-4.342 11.396-10.035 14.783v-33.247c10.998 4.811 10.717 14.413 10.035 18.464z"/></g></svg>