<?xml version="1.0" encoding="iso-8859-1"?>
<!-- Generator: Adobe Illustrator 19.0.0, SVG Export Plug-In . SVG Version: 6.00 Build 0)  -->
<svg width="90" height="90" fill="#01ad79" version="1.1" id="Capa_1" xmlns="http://www.w3.org/2000/svg" xmlns:xlink="http://www.w3.org/1999/xlink" x="0px" y="0px"
	 viewBox="0 0 512.001 512.001" style="enable-background:new 0 0 512.001 512.001;" xml:space="preserve">
<g>
	<g>
		<path d="M139.346,120.16c-1.87-1.86-4.44-2.931-7.07-2.931c-2.64,0-5.21,1.07-7.07,2.931c-1.87,1.859-2.93,4.439-2.93,7.069
			s1.06,5.21,2.93,7.07c1.86,1.86,4.431,2.93,7.07,2.93c2.63,0,5.21-1.069,7.07-2.93c1.859-1.86,2.93-4.44,2.93-7.07
			S141.206,122.019,139.346,120.16z"/>
	</g>
</g>
<g>
	<g>
		<path d="M332.846,120.16c-1.86-1.86-4.44-2.931-7.07-2.931c-2.64,0-5.21,1.07-7.08,2.931c-1.86,1.859-2.93,4.439-2.93,7.069
			s1.069,5.21,2.93,7.07c1.87,1.861,4.44,2.93,7.08,2.93c2.63,0,5.2-1.069,7.07-2.93c1.859-1.86,2.93-4.44,2.93-7.07
			S334.706,122.019,332.846,120.16z"/>
	</g>
</g>
<g>
	<g>
		<path d="M228.762,53.231c-40.804,0-74,33.196-74,74c0,40.804,33.196,74,74,74s74-33.196,74-74
			C302.762,86.427,269.566,53.231,228.762,53.231z M228.764,181.231c-29.775,0-54.002-24.224-54.002-54
			c0-28.247,21.806-51.483,49.466-53.795c-2.998,1.53-5.12,4.521-5.422,8.039c-11.633,3.86-19.992,14.279-19.992,26.5
			c0,15.497,13.435,28.104,29.948,28.104c5.485,0,9.948,3.635,9.948,8.104c0,4.469-4.463,8.104-9.948,8.104
			c-5.485,0-9.948-3.635-9.948-8.104c0-5.522-4.478-10-10-10c-5.522,0-10,4.478-10,10c0,12.209,8.342,22.62,19.957,26.489
			c0.087,5.447,4.524,9.838,9.992,9.838s9.904-4.391,9.992-9.838c11.615-3.87,19.957-14.28,19.957-26.489
			c0-15.496-13.435-28.104-29.948-28.104c-5.485,0-9.948-3.636-9.948-8.104c0-4.468,4.463-8.104,9.948-8.104
			s9.948,3.635,9.948,8.104c0,5.522,4.478,10,10,10c5.522,0,10-4.478,10-10c0-12.221-8.359-22.64-19.992-26.5
			c-0.302-3.518-2.424-6.509-5.422-8.039c27.66,2.313,49.466,25.548,49.466,53.795C282.764,157.006,258.539,181.231,228.764,181.231
			z"/>
	</g>
</g>
<g>
	<g>
		<path d="M506.274,225.287l-48.252-22.904V20.012c0-11.028-8.972-20-20-20h-61.909C376.036,0.01,375.959,0,375.881,0
			s-0.154,0.01-0.232,0.012H20.022c-11.028,0-20,8.972-20,20v62.036c0,0.039-0.006,0.077-0.006,0.116s0.005,0.077,0.006,0.116
			v101.327c0,0.039-0.006,0.077-0.006,0.116s0.005,0.077,0.006,0.116v62.026c0,11.028,8.972,20,20,20h33.994v35.977
			c0,11.028,8.972,20,20,20h58.256c5.522,0,10-4.478,10-10c0-5.522-4.478-10-10-10H74.016v-35.977h129.97v41.199
			c0,46.079,14.467,90.029,41.838,127.098c27.37,37.069,65.114,63.832,109.152,77.396c0.953,0.294,1.945,0.443,2.943,0.443h0.134
			c0.998,0,1.991-0.149,2.944-0.443c44.037-13.563,81.781-40.326,109.151-77.396s41.837-81.019,41.837-127.098v-72.742
			C511.986,230.46,509.762,226.943,506.274,225.287z M438.022,20.012v51.313c-26.264-4.268-47.05-25.051-51.323-51.313H438.022z
			 M20.022,20.012h51.321c-4.264,26.271-25.052,47.064-51.321,51.335V20.012z M20.022,245.864v-51.325
			c26.265,4.271,47.051,25.059,51.319,51.325H20.022z M203.984,234.322v11.543H153.48v-0.001c-0.155-0.007-0.307-0.023-0.464-0.023
			H91.523c-4.561-37.297-34.203-66.934-71.501-71.487V91.533c37.31-4.555,66.959-34.208,71.506-71.521h274.985
			c4.557,37.303,34.204,66.947,71.509,71.498v101.38l-75.681-35.924c-1.123-0.533-2.396-0.851-3.653-0.94
			c-0.228-0.016-0.457-0.024-0.688-0.025c-0.008,0.001-0.012,0-0.012,0c-0.008,0.001-0.018,0-0.018,0c-0.024-0.001-0.037,0-0.051,0
			c0,0-0.015,0.002-0.02,0c0,0-0.007,0.002-0.017,0c-1.351,0.005-2.636,0.277-3.806,0.768c-0.15,0.063-0.299,0.129-0.446,0.198
			l-143.934,68.321C206.208,226.944,203.984,230.461,203.984,234.322z M491.986,307.063c0,84.656-53.724,158.409-134,184.47
			c-80.276-26.061-134-99.813-134-184.47v-66.42l134-63.605l134,63.605V307.063z"/>
	</g>
</g>
<g>
	<g>
		<path d="M466.275,250.577l-104-49.365c-2.713-1.287-5.863-1.287-8.576,0l-104,49.365c-3.488,1.656-5.712,5.173-5.712,9.034v47.452
			c0,72.17,43.318,135.734,110.359,161.938c1.171,0.458,2.405,0.687,3.641,0.687c1.236,0,2.47-0.229,3.641-0.687
			c67.041-26.204,110.359-89.77,110.359-161.938v-47.452C471.987,255.75,469.763,252.233,466.275,250.577z M451.987,307.064
			c0,62.556-36.765,117.804-94,141.836c-57.235-24.031-94-79.279-94-141.836v-41.13l94-44.618l94,44.618V307.064z"/>
	</g>
</g>
<g>
	<g>
		<path d="M401.515,308.295c-3.906-3.904-10.236-3.904-14.143,0l-39.663,39.663l-20.979-20.979c-3.906-3.904-10.236-3.904-14.143,0
			c-3.905,3.905-3.905,10.237,0,14.143l28.052,28.05c1.953,1.952,4.512,2.929,7.071,2.929s5.118-0.977,7.071-2.929l46.734-46.734
			C405.42,318.533,405.42,312.201,401.515,308.295z"/>
	</g>
</g>
<g>
	<g>
		<path d="M182.085,304.77c-1.859-1.86-4.439-2.93-7.069-2.93s-5.21,1.07-7.07,2.93s-2.93,4.44-2.93,7.07s1.069,5.21,2.93,7.07
			c1.86,1.859,4.44,2.93,7.07,2.93s5.21-1.07,7.069-2.93c1.86-1.86,2.931-4.44,2.931-7.07S183.946,306.63,182.085,304.77z"/>
	</g>
</g>
<g>
	<g>
		<path d="M425.316,284.491c-1.86-1.86-4.43-2.931-7.07-2.931c-2.63,0-5.21,1.07-7.069,2.931c-1.86,1.869-2.931,4.439-2.931,7.069
			s1.07,5.21,2.931,7.08c1.859,1.86,4.439,2.92,7.069,2.92s5.21-1.06,7.07-2.92c1.86-1.87,2.93-4.439,2.93-7.08
			C428.246,288.93,427.177,286.35,425.316,284.491z"/>
	</g>
</g>
<g>
</g>
<g>
</g>
<g>
</g>
<g>
</g>
<g>
</g>
<g>
</g>
<g>
</g>
<g>
</g>
<g>
</g>
<g>
</g>
<g>
</g>
<g>
</g>
<g>
</g>
<g>
</g>
<g>
</g>
</svg>
