<svg xmlns="http://www.w3.org/2000/svg" width="1440" height="341" viewBox="0 0 1440 341">
    <defs>
        <clipPath id="vk6ped8iwa">
            <path fill="#ce9d63" d="M0 0H1440V341H0z" transform="translate(0 1461)"/>
        </clipPath>
    </defs>
    <g clip-path="url(#vk6ped8iwa)" transform="translate(0 -1461)">
        <g stroke="#ce9d63">
            <g fill="none">
                <path d="M1823.33 369.79S1413.9 59.582 963.568 295.832 452.282 376.183 232.521 37.957" opacity="0.5" transform="translate(0 -569) translate(-29 1800) translate(-350.491 64)"/>
                <path stroke-dasharray="5" stroke-width="1.5px" d="M1874.042 486.009c-21.131-21.131-94.479-150.76-350.488-83.71S1245.4 252.25 944.285 252.25 515.064 582.419 290.549 491.292" transform="translate(0 -569) translate(-29 1800) translate(-318 64)"/>
            </g>
            <path fill="#ce9d63" d="M913.141 614.912a144.351 144.351 0 0 1-15.209 16.014 134.586 134.586 0 0 1-39.659 24.282 170.569 170.569 0 0 1-31.885 8.914c-17.171 3.194-40.589 4.619-67.718 2.721-54.4-3.264-122.61-20.643-194.4-24.863-35.82-2.174-72.552.794-106.086 10.4-33.631 9.212-64.1 22.921-91.156 35.855-53.731 26.7-96.4 47.625-116.15 54.323a582.7 582.7 0 0 1-75.971 22.666 548.507 548.507 0 0 1-92.745 12.727 514.3 514.3 0 0 1-110.179-6.265 515.793 515.793 0 0 0 110.16 5.93 549.941 549.941 0 0 0 92.625-12.947 590.1 590.1 0 0 0 75.842-22.739c19.713-6.686 62.324-27.576 116.089-54.295 27.073-12.946 57.58-26.674 91.287-35.9 33.605-9.629 70.469-12.606 106.329-10.432 71.9 4.235 140.124 21.619 194.417 24.869 27.08 1.894 50.425.471 67.524-2.708A170.141 170.141 0 0 0 858 654.588a139.136 139.136 0 0 0 39.685-23.9 149.833 149.833 0 0 0 15.456-15.776z" transform="translate(0 -569) rotate(-7 13065.944 -2951.903)"/>
        </g>
    </g>
</svg>
