<svg xmlns="http://www.w3.org/2000/svg" width="285.33" height="197.05" viewBox="0 0 285.33 197.05">
    <defs>
        <filter id="Path_25645" width="30.089" height="35.301" x="135.118" y="47.663" filterUnits="userSpaceOnUse">
            <feOffset dy="7"/>
            <feGaussianBlur result="blur" stdDeviation="4"/>
            <feFlood flood-color="#c99a65" flood-opacity=".259"/>
            <feComposite in2="blur" operator="in"/>
            <feComposite in="SourceGraphic"/>
        </filter>
        <filter id="Path_25646" width="29.175" height="36.104" x="140.733" y="43.688" filterUnits="userSpaceOnUse">
            <feOffset dy="7"/>
            <feGaussianBlur result="blur-2" stdDeviation="4"/>
            <feFlood flood-color="#c99a65" flood-opacity=".259"/>
            <feComposite in2="blur-2" operator="in"/>
            <feComposite in="SourceGraphic"/>
        </filter>
        <filter id="Path_25647" width="30.078" height="34.042" x="145.447" y="41.646" filterUnits="userSpaceOnUse">
            <feOffset dy="7"/>
            <feGaussianBlur result="blur-3" stdDeviation="4"/>
            <feFlood flood-color="#c99a65" flood-opacity=".259"/>
            <feComposite in2="blur-3" operator="in"/>
            <feComposite in="SourceGraphic"/>
        </filter>
        <filter id="Path_25648" width="28.993" height="35.828" x="151.065" y="38.126" filterUnits="userSpaceOnUse">
            <feOffset dy="7"/>
            <feGaussianBlur result="blur-4" stdDeviation="4"/>
            <feFlood flood-color="#c99a65" flood-opacity=".259"/>
            <feComposite in2="blur-4" operator="in"/>
            <feComposite in="SourceGraphic"/>
        </filter>
        <filter id="Path_25649" width="26.385" height="34.369" x="155.833" y="36.892" filterUnits="userSpaceOnUse">
            <feOffset dy="7"/>
            <feGaussianBlur result="blur-5" stdDeviation="4"/>
            <feFlood flood-color="#c99a65" flood-opacity=".259"/>
            <feComposite in2="blur-5" operator="in"/>
            <feComposite in="SourceGraphic"/>
        </filter>
        <filter id="Path_25650" width="30.797" height="35.41" x="157.505" y="33.564" filterUnits="userSpaceOnUse">
            <feOffset dy="7"/>
            <feGaussianBlur result="blur-6" stdDeviation="4"/>
            <feFlood flood-color="#c99a65" flood-opacity=".259"/>
            <feComposite in2="blur-6" operator="in"/>
            <feComposite in="SourceGraphic"/>
        </filter>
        <filter id="Path_25651" width="28.781" height="35.5" x="163.347" y="31.515" filterUnits="userSpaceOnUse">
            <feOffset dy="7"/>
            <feGaussianBlur result="blur-7" stdDeviation="4"/>
            <feFlood flood-color="#c99a65" flood-opacity=".259"/>
            <feComposite in2="blur-7" operator="in"/>
            <feComposite in="SourceGraphic"/>
        </filter>
        <filter id="Path_25652" width="30.301" height="36.26" x="169.792" y="27.114" filterUnits="userSpaceOnUse">
            <feOffset dy="7"/>
            <feGaussianBlur result="blur-8" stdDeviation="4"/>
            <feFlood flood-color="#c99a65" flood-opacity=".259"/>
            <feComposite in2="blur-8" operator="in"/>
            <feComposite in="SourceGraphic"/>
        </filter>
        <filter id="Path_25653" width="29.933" height="33.376" x="175.763" y="25.306" filterUnits="userSpaceOnUse">
            <feOffset dy="7"/>
            <feGaussianBlur result="blur-9" stdDeviation="4"/>
            <feFlood flood-color="#c99a65" flood-opacity=".259"/>
            <feComposite in2="blur-9" operator="in"/>
            <feComposite in="SourceGraphic"/>
        </filter>
        <filter id="Path_25654" width="29.121" height="35.417" x="181.349" y="21.428" filterUnits="userSpaceOnUse">
            <feOffset dy="7"/>
            <feGaussianBlur result="blur-10" stdDeviation="4"/>
            <feFlood flood-color="#c99a65" flood-opacity=".259"/>
            <feComposite in2="blur-10" operator="in"/>
            <feComposite in="SourceGraphic"/>
        </filter>
        <filter id="Path_25655" width="28.402" height="34.895" x="186.329" y="19.136" filterUnits="userSpaceOnUse">
            <feOffset dy="7"/>
            <feGaussianBlur result="blur-11" stdDeviation="4"/>
            <feFlood flood-color="#c99a65" flood-opacity=".259"/>
            <feComposite in2="blur-11" operator="in"/>
            <feComposite in="SourceGraphic"/>
        </filter>
        <filter id="Path_25656" width="29.804" height="34.667" x="189.681" y="16.49" filterUnits="userSpaceOnUse">
            <feOffset dy="7"/>
            <feGaussianBlur result="blur-12" stdDeviation="4"/>
            <feFlood flood-color="#c99a65" flood-opacity=".259"/>
            <feComposite in2="blur-12" operator="in"/>
            <feComposite in="SourceGraphic"/>
        </filter>
        <linearGradient id="linear-gradient" x1=".5" x2=".5" y2="1.131" gradientUnits="objectBoundingBox">
            <stop offset="0" stop-color="#d4c8ba" stop-opacity=".502"/>
            <stop offset="1" stop-color="#d4c8ba" stop-opacity=".502"/>
        </linearGradient>
        <linearGradient id="linear-gradient-2" x1=".04" x2=".735" y1=".5" y2=".5" gradientUnits="objectBoundingBox">
            <stop offset="0" stop-color="#878787"/>
            <stop offset="1" stop-color="#3a3f49"/>
        </linearGradient>
        <linearGradient id="linear-gradient-3" x1="3.513" x2="3.46" y1=".335" y2=".378" gradientUnits="objectBoundingBox">
            <stop offset="0" stop-color="#f6f4f7"/>
            <stop offset="1" stop-color="#c0b9c8"/>
        </linearGradient>
        <linearGradient id="linear-gradient-4" x1=".479" x2="-.038" y1=".59" y2="-.256" gradientUnits="objectBoundingBox">
            <stop offset="0" stop-color="#ce9d63"/>
            <stop offset="1" stop-color="#ad8b70"/>
        </linearGradient>
        <linearGradient id="linear-gradient-17" x1="9.81" x2="9.191" y1=".054" y2=".946" gradientUnits="objectBoundingBox">
            <stop offset="0" stop-color="#fffefa"/>
            <stop offset="1" stop-color="#f1f0ec"/>
        </linearGradient>
        <linearGradient id="linear-gradient-18" x1="3.087" x2="2.916" y1=".124" y2=".734" gradientUnits="objectBoundingBox">
            <stop offset="0" stop-color="#ffd2b1"/>
            <stop offset=".485" stop-color="#ffb59a"/>
            <stop offset="1" stop-color="#ed9783"/>
        </linearGradient>
        <clipPath id="clip-path">
            <path id="Cylinder_face" fill="none" d="M1316.729 410.883c0 4.086 1.493 6.907 3.882 8.121 2.2 1.116-1.32 29.905 26.679 40.971 8.234 3.254 72.522 11.073 79.564.914 7.256-10.47-11.4-53.37-21.2-59.81-10.576-6.956-65.873-11.441-68.358-12.606-2.183-1.025-5.083-.746-8.262 1.093-6.796 3.924-12.305 13.468-12.305 21.317z" transform="translate(-1316.729 -387.884)"/>
        </clipPath>
        <style>
            .cls-5{fill:#353131}.cls-6{fill:#c5bfcd}.cls-7{fill:#f6f4f7}.cls-9{fill:#191414}.cls-10{fill:#c6c6c6;opacity:.1}.cls-19{isolation:isolate}.cls-14{stroke:transparent;fill:url(#linear-gradient-4)}.cls-18{fill:#ffd2b1}.cls-19{fill:#ffccb5;opacity:.4;mix-blend-mode:multiply}.cls-26{fill:#c4bea3}.cls-27{fill:#d8d2b8}.cls-28{fill:#fff9e1}.cls-29{fill:#687a51}.cls-30{fill:#a5aa9f}.cls-31{fill:#f9f8f2}.cls-32{fill:#d1c1d3}
        </style>
    </defs>
    <g id="Illustration-ReceiveMoney" transform="translate(18)">
        <g id="_8">
            <g id="Group_22868">
                <g id="Group_22862">
                    <path id="Path_25626" fill="url(#linear-gradient)" d="M1331.2 407.465a5.172 5.172 0 0 0-2.581.692l-77.269 44.612c-.291.169-1.287.57-.891 1.1a4.338 4.338 0 0 0 1.89.511h108.122l36.941-46.914z" transform="translate(-1250.372 -275.329)"/>
                    <path id="Path_25627" fill="url(#linear-gradient-2)" d="M1296.353 522.964l-.232-125.444 77.223-44.586c2.581-2.047 5.038-.818 5.043 1.475l.042 121.813c0 .921-2.9 5.643-3.7 6.1l-75.244 43.4c-2.11.592-3.132-1.584-3.132-2.758z" transform="translate(-1188.866 -350.04)"/>
                    <path id="Path_25628" fill="url(#linear-gradient-3)" d="M1378.655 352.7a3.621 3.621 0 0 0-3.652.361l-72.684 42.061a11.279 11.279 0 0 0-5.111 8.874l.134 122.863a3.6 3.6 0 0 0 1.5 3.294l-2.156-1.252a3.6 3.6 0 0 1-1.5-3.294l-.134-122.863a11.279 11.279 0 0 1 5.111-8.874l72.684-42.061a3.621 3.621 0 0 1 3.652-.361z" transform="translate(-1190.305 -351.103)"/>
                    <path id="Path_25629" d="M1373.766 352.343l-72.684 42.057a11.279 11.279 0 0 0-5.111 8.874l.134 122.863c.012 3.261 2.321 4.572 5.156 2.933l72.684-42.061a11.282 11.282 0 0 0 5.111-8.871l-.134-122.866c-.013-3.255-2.322-4.572-5.156-2.929zm-71.8 42.809l72.672-42.054a2.205 2.205 0 0 1 3.31 1.906l.112 120.395a3.316 3.316 0 0 1-1.657 2.879l-77.161 44.651a1.387 1.387 0 0 1-2.082-1.2l-.113-118.041a9.852 9.852 0 0 1 4.916-8.537z" class="cls-5" transform="translate(-1189.068 -350.384)"/>
                </g>
                <g id="Group_22863" transform="translate(104.366 60.278)">
                    <path id="Path_25630" d="M1296.471 382.342l.009 9.349c0 .443-.312.619-.7.4l-.19-.11a1.532 1.532 0 0 1-.694-1.2l-.009-9.347c0-.441.314-.619.7-.4l.192.11a1.532 1.532 0 0 1 .692 1.198z" class="cls-6" transform="translate(-1294.889 -371.268)"/>
                    <path id="Path_25631" d="M1296.468 381.274a1.718 1.718 0 0 1 .267.422 1.3 1.3 0 0 1 .122.523l.01 9.347a.488.488 0 0 1-.2.448l-.5.293a.493.493 0 0 0 .2-.448l-.009-9.349a1.3 1.3 0 0 0-.122-.52 1.658 1.658 0 0 0-.27-.422 1.223 1.223 0 0 0-.3-.255l-.192-.11a.494.494 0 0 0-.495-.047l.5-.293a.491.491 0 0 1 .492.047l.192.11a1.292 1.292 0 0 1 .305.254z" class="cls-7" transform="translate(-1294.773 -371.436)"/>
                    <path id="Path_25632" d="M1296.474 377.275a1.683 1.683 0 0 1 .267.422 1.3 1.3 0 0 1 .122.52v4.431a.488.488 0 0 1-.2.448l-.5.293a.493.493 0 0 0 .2-.448v-4.431a1.314 1.314 0 0 0-.122-.523 1.65 1.65 0 0 0-.27-.422 1.286 1.286 0 0 0-.3-.256l-.192-.108a.484.484 0 0 0-.495-.047l.5-.293a.479.479 0 0 1 .492.047l.192.11a1.286 1.286 0 0 1 .306.257z" class="cls-7" transform="translate(-1294.765 -376.814)"/>
                    <path id="Path_25633" d="M1296.477 378.342v4.431c0 .443-.312.621-.7.4l-.19-.11a1.528 1.528 0 0 1-.694-1.2v-4.431c0-.438.314-.617.7-.4l.192.108a1.537 1.537 0 0 1 .692 1.202z" class="cls-6" transform="translate(-1294.881 -376.646)"/>
                </g>
                <path id="Path_25634" d="M1335.523 362.528l-26.368 15.223-1.7-2.906 29.773-17.19z" class="cls-5" transform="translate(-1173.633 -342.293)"/>
                <g id="Group_22864" transform="translate(147.862 148.127)">
                    <path id="Path_25635" fill="#262424" d="M1321.381 415.285v1.583a2.855 2.855 0 0 1-1.385 2.211l-4.888 2.83a1.555 1.555 0 0 1-.757.23.889.889 0 0 1-.889-.985v-1.58a2.855 2.855 0 0 1 1.385-2.211l4.89-2.83a1.539 1.539 0 0 1 .755-.23.888.888 0 0 1 .889.982z" transform="translate(-1313.415 -414.263)"/>
                    <path id="Path_25636" d="M1321.019 415.043v1.594a2.876 2.876 0 0 1-1.395 2.227l-4.928 2.851a1.543 1.543 0 0 1-.762.232.846.846 0 0 1-.248-.049 1.05 1.05 0 0 1-.242-.708v-1.594a2.879 2.879 0 0 1 1.395-2.227l4.928-2.851a1.549 1.549 0 0 1 .762-.232.846.846 0 0 1 .248.049 1.036 1.036 0 0 1 .242.708z" class="cls-5" transform="translate(-1313.442 -414.286)"/>
                </g>
                <g id="Group_22867" transform="translate(148.533 24.435)">
                    <g id="Group_22865">
                        <path id="Path_25637" d="M1314.518 361.634a1.743 1.743 0 0 0-.79 1.372c0 .5.356.706.795.452a1.74 1.74 0 0 0 .792-1.369c-.002-.504-.359-.708-.797-.455z" class="cls-9" transform="translate(-1313.728 -361.526)"/>
                    </g>
                    <g id="Group_22866" transform="translate(.208 .266)">
                        <path id="Path_25638" d="M1313.817 362.711a1.287 1.287 0 0 1 .612-1c.328-.178.586-.019.577.356a1.291 1.291 0 0 1-.612 1c-.329.176-.586.016-.577-.356z" class="cls-10" transform="translate(-1313.817 -361.639)"/>
                        <path id="Path_25639" d="M1313.937 362.377a.7.7 0 0 1 .333-.542c.178-.1.319-.009.314.192a.709.709 0 0 1-.333.544c-.178.097-.319.01-.314-.194z" class="cls-10" transform="translate(-1313.655 -361.427)"/>
                        <path id="Path_25640" fill="#c6c6c6" d="M1314.024 362.12a.257.257 0 0 1 .122-.2c.068-.037.119 0 .117.07a.258.258 0 0 1-.124.2c-.066.038-.118.01-.115-.07z" transform="translate(-1313.538 -361.281)" style="isolation:isolate;mix-blend-mode:screen" opacity="0.2"/>
                    </g>
                </g>
                <path id="Path_25641" d="M1322.147 360.012l-5.071 2.928c-.314.18-.567.073-.567-.239a1.174 1.174 0 0 1 .567-.9l5.071-2.926c.312-.18.567-.075.567.239a1.176 1.176 0 0 1-.567.898z" class="cls-9" transform="translate(-1161.456 -340.766)"/>
                <path id="Path_25642" d="M1314.335 364.524l-5.071 2.926c-.314.181-.567.073-.567-.239a1.175 1.175 0 0 1 .567-.9l5.071-2.926c.314-.18.567-.073.567.239a1.178 1.178 0 0 1-.567.9z" class="cls-9" transform="translate(-1171.959 -334.702)"/>
            </g>
            <g id="Group_22869" transform="translate(118.859 7.171)">
                <path id="Path_25643" fill="#d4c8ba" d="M1381.643 475.738l-80.572 46.519v-118.1l80.572-46.519z" opacity="0.5" transform="translate(-1301.071 -349.493)"/>
                <path id="Path_25644" fill="#131313" d="M1381.643 376.809l-80.572 46.519V400.68l80.572-46.519z" transform="translate(-1301.07 -354.162)"/>
            </g>
            <g id="Group_22871" transform="translate(129.618 22.505)">
                <g id="Group_22870">
                    <g filter="url(#Path_25645)" transform="translate(-147.62 -22.5)">
                        <path id="Path_25645-2" d="M1308 380.214l-.823.459v2.19l-1.514.856v-8.269l2.443-1.339c1.446-.792 2.351-.129 2.351 1.742a5.178 5.178 0 0 1-1.034 3.163l1.139 1.936-1.6.9zm.014-4.218l-.837.462v2.415l.837-.467a1.856 1.856 0 0 0 .933-1.716c-.003-.762-.312-1.038-.936-.69z" class="cls-14" transform="translate(-1158.04 -320.61)"/>
                    </g>
                    <g filter="url(#Path_25646)" transform="translate(-147.62 -22.5)">
                        <path id="Path_25646-2" d="M1312.23 378.506v1.77l-4.175 2.359v-8.173l4.079-2.232V374l-2.614 1.442v1.371l2.3-1.275v1.714l-2.3 1.285v1.491z" class="cls-14" transform="translate(-1154.82 -322.7)"/>
                    </g>
                    <g filter="url(#Path_25647)" transform="translate(-147.62 -22.5)">
                        <path id="Path_25647-2" d="M1310.066 377.28c0-2.462 1.193-4.86 2.811-5.746a1.5 1.5 0 0 1 2.173.321l-.907 1.805a.833.833 0 0 0-1.193-.281 3.539 3.539 0 0 0-1.421 3.088c0 1.381.584 1.976 1.421 1.507a3.116 3.116 0 0 0 1.193-1.611l.907.8a5.251 5.251 0 0 1-2.173 2.736c-1.618.911-2.811-.158-2.811-2.619z" class="cls-14" transform="translate(-1152.12 -324.05)"/>
                    </g>
                    <g filter="url(#Path_25648)" transform="translate(-147.62 -22.5)">
                        <path id="Path_25648-2" d="M1316.454 376v1.733l-3.993 2.255v-7.992l3.9-2.136v1.732l-2.5 1.379v1.343l2.2-1.221v1.676l-2.2 1.229v1.458z" class="cls-14" transform="translate(-1148.9 -325.89)"/>
                    </g>
                    <g filter="url(#Path_25649)" transform="translate(-147.62 -22.5)">
                        <path id="Path_25649-2" d="M1314.5 370.092l1.385-.76v7.884l-1.385.784z" class="cls-14" transform="translate(-1146.16 -326.6)"/>
                    </g>
                    <g filter="url(#Path_25650)" transform="translate(-147.62 -22.5)">
                        <path id="Path_25650-2" d="M1320.714 367.967l-2.049 8.939-1.341.757-2.073-6.707 1.486-.811 1.311 4.382 1.329-5.828z" class="cls-14" transform="translate(-1145.15 -328.43)"/>
                    </g>
                    <g filter="url(#Path_25651)" transform="translate(-147.62 -22.5)">
                        <path id="Path_25651-2" d="M1321.482 373.016v1.684l-3.781 2.136v-7.776l3.695-2.023v1.686l-2.368 1.306v1.308l2.087-1.158v1.632l-2.087 1.165v1.418z" class="cls-14" transform="translate(-1141.85 -329.68)"/>
                    </g>
                    <g filter="url(#Path_25652)" transform="translate(-147.62 -22.5)">
                        <path id="Path_25652-2" d="M1324.576 373.39l-.012-4.016-1.17 3.932-.572.324-1.17-2.53v3.941l-1.2.68v-7.664l1.072-.586 1.608 3.517 1.557-5.249 1.05-.577.014 7.565z" class="cls-14" transform="translate(-1138.16 -332.2)"/>
                    </g>
                    <g filter="url(#Path_25653)" transform="translate(-147.62 -22.5)">
                        <path id="Path_25653-2" d="M1323 369.79c0-2.269 1.055-4.508 2.48-5.289s2.452.3 2.452 2.546-1.036 4.471-2.452 5.273-2.48-.263-2.48-2.53zm3.676-2.044c0-1.294-.525-1.852-1.2-1.484a3.3 3.3 0 0 0-1.2 2.818c0 1.3.527 1.857 1.2 1.479a3.315 3.315 0 0 0 1.197-2.813z" class="cls-14" transform="translate(-1134.73 -333.43)"/>
                    </g>
                    <g filter="url(#Path_25654)" transform="translate(-147.62 -22.5)">
                        <path id="Path_25654-2" d="M1329.5 362.735v7.39l-1 .565-1.913-2.886v3.967l-1.207.682v-7.463l1.015-.556 1.913 2.9v-3.95z" class="cls-14" transform="translate(-1131.53 -335.46)"/>
                    </g>
                    <g filter="url(#Path_25655)" transform="translate(-147.62 -22.5)">
                        <path id="Path_25655-2" d="M1330.906 367.431v1.6l-3.4 1.922v-7.375l3.324-1.819v1.6l-2.131 1.175v1.24l1.878-1.041v1.547l-1.878 1.048v1.346z" class="cls-14" transform="translate(-1128.67 -336.78)"/>
                    </g>
                    <g filter="url(#Path_25656)" transform="translate(-147.62 -22.5)">
                        <path id="Path_25656-2" d="M1331.766 366.228v2.607l-1.177.664v-2.642l-1.6-3.77 1.252-.685.987 2.349.985-3.427 1.132-.621z" class="cls-14" transform="translate(-1126.67 -338.2)"/>
                    </g>
                </g>
            </g>
        </g>
        <g id="Group_22902" transform="translate(145.621 79.373)">
            <g id="Group_22877">
                <path id="Path_25657" d="M1337.857 386.779l.2.1-1.815-1.046c-2.52-1.4-5.976-1.17-9.788 1.032-7.718 4.454-13.973 15.29-13.973 24.2 0 4.508 1.6 7.661 4.183 9.1l1.7.982c2.591 1.468 6.063 1.247 9.9-.966 7.718-4.457 13.973-15.293 13.973-24.2.006-4.626-1.682-7.819-4.38-9.202z" class="cls-14" transform="translate(-1312.486 -384.959)"/>
                <path id="Path_25658" fill="url(#linear-gradient-17)" d="M1339.9 389.551c.061.033.124.061.185.094l-3.622-2.091c-2.283-1.271-5.416-1.06-8.871.935-6.993 4.037-12.664 13.858-12.664 21.934 0 4.086 1.451 6.942 3.793 8.245l3.523 2.033c2.344 1.329 5.493 1.13 8.97-.877 6.993-4.037 12.664-13.858 12.664-21.934 0-4.19-1.531-7.085-3.978-8.339z" transform="translate(-1309.204 -382.539)"/>
                <g id="Axonometric_Cylinder" transform="translate(9.947 6.857)">
                    <path id="Cylinder_face-2" fill="#d3d3d1" d="M1316.729 410.883c0 7.849 5.509 11.033 12.308 7.108s12.308-13.471 12.308-21.32-5.509-11.033-12.308-7.106-12.308 13.469-12.308 21.318z" transform="translate(-1316.729 -387.883)"/>
                </g>
                <g id="Group_22876" transform="translate(9.947 6.857)">
                    <g id="Group_22875" clip-path="url(#clip-path)">
                        <g id="Group_22874" transform="translate(-8.531 -1.91)">
                            <g id="Group_22872">
                                <path id="Path_25659" d="M1419.462 451.866a10.47 10.47 0 0 0-2.842-4.011 4.685 4.685 0 0 0 1.294-3.7 6.215 6.215 0 0 0-.8-2.56 8.779 8.779 0 0 0-1.655-2.1 13.148 13.148 0 0 0-2.11-1.618c-.757-.478-1.536-.842-2.276-1.28-.251-.145-.5-.293-.753-.441a4.369 4.369 0 0 0 .553-1.761 7.059 7.059 0 0 0-.1-2.075 7.4 7.4 0 0 0-.26-1.006 5.358 5.358 0 0 0-.426-.968 5.881 5.881 0 0 0-.6-.867 7.931 7.931 0 0 0-.736-.743 9.66 9.66 0 0 0-.811-.638c-.277-.2-.565-.38-.854-.56a27.382 27.382 0 0 0-3.531-1.742 29.415 29.415 0 0 0-2.917-3.21 40.081 40.081 0 0 0-3.343-2.893q-.879-.672-1.789-1.3c-.61-.413-1.224-.823-1.859-1.2-.314-.192-.633-.377-.959-.551s-.645-.363-.978-.523c-.64-.333-1.3-.628-1.958-.919-1.444-1.32-2.961-2.523-4.466-3.739L1383 409.6c-.75-.621-1.5-1.245-2.2-1.9l-1.395-1.118q-.69-.549-1.4-1.081-1.417-1.062-2.9-2.023a40.369 40.369 0 0 0-6.231-3.385c-.546-.234-1.1-.45-1.66-.654s-1.123-.394-1.7-.551c-.57-.173-1.156-.3-1.74-.431-.586-.113-1.175-.22-1.772-.288s-1.193-.122-1.8-.141a16.175 16.175 0 0 0-3.6.263c-.528.082-1.041.225-1.557.359-3.034-1.866-6.07-3.732-9.122-5.573-3.1-1.892-6.217-3.744-9.335-5.606-.12-.073-.232.159-.349.082-6.45-4.185-27.008 20.11-22.521 23.142a.227.227 0 0 0-.244.382l9.174 5.988 9.026 5.814a.332.332 0 0 0 .073.108l2.262 9.823c.377 1.674.783 3.341 1.186 5.01l.6 2.5.3 1.252a3.035 3.035 0 0 0 .631 1.3c.347.389.656.612.978.917l.959.858 1.92 1.716 3.838 3.432a2.987 2.987 0 0 0 1.226.7 11.439 11.439 0 0 0 1.322.2l2.555.3 5.111.614c1.709.2 3.4.382 5.09.7 1.692.288 3.385.591 5.1.8a22.625 22.625 0 0 0 2.6.192 7.148 7.148 0 0 0 1.332-.1 2.938 2.938 0 0 0 .682-.2 2.991 2.991 0 0 0 .6-.373 3.371 3.371 0 0 0 1.2-2.448 4.949 4.949 0 0 0-.162-1.568c.893.53 1.793 1.05 2.731 1.505 1.714.86 3.448 1.662 5.2 2.44 3.5 1.545 7.042 2.987 10.648 4.267q2.7.96 5.47 1.747a29.436 29.436 0 0 0 5.655 1.132 8.819 8.819 0 0 0 1.472-.007 5.145 5.145 0 0 0 .746-.127 6.784 6.784 0 0 0 .7-.255 6.039 6.039 0 0 0 1.308-.727 3.213 3.213 0 0 0 1.01-1.161 2.837 2.837 0 0 0 .293-1.083 28.148 28.148 0 0 0 5.071 1.625 12.8 12.8 0 0 0 3.113.263 6.559 6.559 0 0 0 3.043-.86 4.852 4.852 0 0 0 2.183-2.323 4.582 4.582 0 0 0-.258-3.182z" class="cls-18" transform="translate(-1313.09 -387.069)"/>
                                <path id="Path_25660" d="M1409.762 431.96a6.679 6.679 0 0 0-3.664-4.55c-.783-.406-1.8-.942-3.456-1.667-1.587-1.416-3.111-3.51-4.843-4.534a30.9 30.9 0 0 0-8.7-6.135c-2.827-1.407-7.322-5.781-9.148-7.542-1.3-.964-13.9-12.205-25.643-8.74l-18.519-11.457-22.2 23.172 36.486 21.794 15.14-5.556 8.243-3.688a24.882 24.882 0 0 1 3.287 1.32c1.435.731 2.79 1.611 4.183 2.422 3.627 2.117 23.882 11.326 26.794 10.271 2.164-.785 2.457-3.122 2.04-5.11z" class="cls-18" transform="translate(-1312.421 -386.712)"/>
                                <path id="Path_25661" d="M1353.858 422.116c1.678.853 11.309 6.166 12.934 7.115 4.237 2.471 19.761 8.712 22.764 6.691a4.667 4.667 0 0 0 1.723-5.992c-.926-2.187-5.767-5.27-7.877-6.36s-4.4-1.793-6.527-2.841c-6.046-2.973-18.462-12.756-23.88-16.763-1.521-1.125-3.125-2.133-4.691-3.2a34.076 34.076 0 0 0-5.8-3.519 8.9 8.9 0 0 0-6.621-.387 5.2 5.2 0 0 0-3.4 5.3 8.287 8.287 0 0 0 .987 2.527c1.918 3.678 3.653 8.977 6.986 11.684 3.675 2.991 9.224 3.621 13.402 5.745z" class="cls-18" transform="translate(-1287.083 -374.544)"/>
                                <path id="Path_25662" d="M1365.776 416.061a22.883 22.883 0 0 1-4.286-3.345c-2.888-2.87-7.183-4.628-10.808-6.482a56.52 56.52 0 0 1-5.568-4.323c-.7.429-1.411.832-2.112 1.257a.747.747 0 0 1-.64.83c-.34.068-.654.155-.968.242-.061.044-.122.084-.18.129a.778.778 0 0 1-.7.164 8.846 8.846 0 0 0-2.757 1.634 10.728 10.728 0 0 1-2.382 1.7 10.325 10.325 0 0 0 1.135 1.085c3.676 2.987 12.048 5.12 16.226 7.247 1.679.851 11.309 6.163 12.934 7.113 4.236 2.471 16.91 7.193 19.911 5.174a4.568 4.568 0 0 0 2.152-4.286c-2.337 4.853-9.035 3.113-12.918-.886a45.391 45.391 0 0 0-9.039-7.253z" class="cls-19" transform="translate(-1283.135 -367.117)"/>
                                <path id="Path_25663" d="M1357.526 428.468c1.787.907 12.47 4.935 14.2 5.943 4.511 2.635 15.279 9.16 20.474 5.917 2.431-1.517 2.6-3.109 1.618-5.437a11.059 11.059 0 0 0-5.352-5.155c-2.246-1.158-4.682-1.911-6.951-3.027-3.535-1.737-8.763-6.853-15.869-9.98-4.567-3.763-9.033-6.426-11.635-8.348-1.62-1.2-3.556-3.022-5.223-4.154a36.322 36.322 0 0 0-6.182-3.746 9.471 9.471 0 0 0-7.052-.415 5.542 5.542 0 0 0-3.617 5.648 8.876 8.876 0 0 0 1.05 2.691c2.042 3.917 3.889 9.56 7.441 12.444 3.916 3.181 12.647 5.357 17.098 7.619z" class="cls-18" transform="translate(-1287.819 -370.278)"/>
                                <path id="Path_25664" d="M1383.817 432.426c-4.267-1.4-6.381-4.281-10.5-7.957-1.378-.846-7.286-1.611-14.559-8.006-5.3-4.663-12.719-6.018-17.907-10.067-.035-.028-6.03-3.005-8.072-2.1 1.7 3.653 3.479 8 6.457 10.416 3.915 3.181 12.646 5.357 17.1 7.619 1.787.907 12.47 4.935 14.2 5.943 4.511 2.635 15.279 9.16 20.474 5.917a4.128 4.128 0 0 0 2.1-2.473c-3.059 1.734-5.61 1.92-9.293.708z" class="cls-19" transform="translate(-1286.623 -364.14)"/>
                                <path id="Path_25665" d="M1348.874 427.461c1.74.884 3.378 1.948 5.062 2.931 4.391 2.563 25.842 12.28 31 10.383 3.305-1.212 3.242-3.179 2.283-5.444a10.757 10.757 0 0 0-5.2-5.017c-2.185-1.128-3.5-.593-5.711-1.679-1.393-.685-2.924-2.544-5.094-3.986-2.623-1.742-6.067-2.949-9.019-4.74-5.038-3.742-8.264-5.214-11.783-9.019a63 63 0 0 0-7.291-5.549 35.308 35.308 0 0 0-6.016-3.648 9.221 9.221 0 0 0-6.86-.4 5.392 5.392 0 0 0-3.519 5.493 8.665 8.665 0 0 0 1.02 2.619c1.988 3.81 3.786 9.3 7.24 12.109 3.814 3.092 9.558 3.746 13.888 5.947z" class="cls-18" transform="translate(-1294.822 -368.61)"/>
                                <path id="Path_25666" d="M1336.932 413.668a46.6 46.6 0 0 1 6.553 2.445c1.74.884 3.378 1.948 5.062 2.931 4.391 2.563 25.842 12.28 31 10.383 2.307-.846 2.968-2.063 2.834-3.489a11.52 11.52 0 0 1-1.374.591 6.891 6.891 0 0 1-4.07.666 9.819 9.819 0 0 1-1.39-.131 10.576 10.576 0 0 1-2.6-.488c-2.375-.776-3.7-2.4-5.3-4.084a1.577 1.577 0 0 0-1.219-.462c-3.911.124-10.714-1.163-14.416-6.515-6.318-.9-9.814-3.735-12.411-4.3-3.184-.692-4.581-1.887-7.837-1.974a1.171 1.171 0 0 0-.511.063c-1.573.717.532 2.075 1.114 2.429a21.864 21.864 0 0 0 4.565 1.935z" class="cls-19" transform="translate(-1289.433 -357.262)"/>
                                <path id="Path_25667" d="M1313.309 401.482l18.455 11.8s2.9 12.364 4.443 18.887a2.6 2.6 0 0 0 .792 1.334l7.434 6.726a2.606 2.606 0 0 0 1.4.647c2.56.345 7.7 1.02 10.264 1.3 3.735.4 10.916 2.14 12.955 1.168 2.274-1.088 2.8-5.2-2.621-9.525a24.464 24.464 0 0 0-13.684-4.844 57.79 57.79 0 0 0-2.68-12.067c1.372-4.075.678-7.687.835-10.165l-30.025-12.679z" class="cls-18" transform="translate(-1312.796 -377.665)"/>
                                <path id="Path_25668" fill="url(#linear-gradient-18)" d="M1419.3 451.657a10.47 10.47 0 0 0-2.842-4.011 4.685 4.685 0 0 0 1.294-3.7 6.215 6.215 0 0 0-.8-2.56 8.779 8.779 0 0 0-1.655-2.1 13.148 13.148 0 0 0-2.11-1.618c-.757-.478-1.536-.842-2.276-1.28-.251-.145-.5-.293-.753-.441a4.369 4.369 0 0 0 .553-1.761 7.059 7.059 0 0 0-.1-2.075 7.4 7.4 0 0 0-.26-1.006 5.358 5.358 0 0 0-.426-.968 5.881 5.881 0 0 0-.6-.867 7.931 7.931 0 0 0-.736-.743 9.66 9.66 0 0 0-.811-.638c-.277-.2-.565-.38-.854-.56a27.382 27.382 0 0 0-3.531-1.742 29.415 29.415 0 0 0-2.917-3.21 40.081 40.081 0 0 0-3.343-2.893q-.879-.672-1.789-1.3c-.61-.413-1.224-.823-1.859-1.2-.314-.192-.633-.377-.959-.551s-.645-.363-.978-.523c-.64-.333-1.3-.628-1.958-.919-1.444-1.32-2.961-2.523-4.466-3.739l-2.272-1.852c-.75-.621-1.5-1.245-2.2-1.9l-1.395-1.118q-.69-.549-1.4-1.081-1.417-1.062-2.9-2.023a40.369 40.369 0 0 0-6.231-3.385c-.546-.234-1.1-.45-1.66-.654s-1.123-.394-1.7-.551c-.57-.173-1.156-.3-1.74-.431-.586-.113-1.175-.22-1.772-.288s-1.193-.122-1.8-.141a16.175 16.175 0 0 0-3.6.263c-.528.082-1.041.225-1.557.359-3.034-1.866-6.07-3.732-9.122-5.573-3.1-1.892-6.217-3.744-9.335-5.606a.256.256 0 0 0-.349.082.26.26 0 0 0 .077.359c3.057 1.958 6.107 3.924 9.183 5.852q4.6 2.915 9.228 5.779a.461.461 0 0 0 .354.056c.574-.141 1.123-.3 1.688-.38a15.775 15.775 0 0 1 1.7-.209c.57-.028 1.139-.056 1.711-.035a16.786 16.786 0 0 1 1.714.117c.57.059 1.137.157 1.7.258.563.12 1.125.239 1.681.394.561.138 1.111.316 1.663.49s1.092.38 1.631.6a39.883 39.883 0 0 1 6.213 3.156q1.481.932 2.9 1.965c.474.342.938.694 1.4 1.05l1.371 1.09c.718.68 1.463 1.3 2.211 1.929l2.262 1.866c1.5 1.252 3.01 2.5 4.412 3.826.75.37 1.4.678 2.035 1.027.322.164.631.354.943.534s.624.363.926.563c.619.375 1.217.781 1.812 1.193s1.172.849 1.742 1.292c1.135.9 2.246 1.831 3.294 2.83a29.3 29.3 0 0 1 2.663 2.848 7.52 7.52 0 0 0-1.226.56 4.9 4.9 0 0 0-1.029.781 2.837 2.837 0 0 0-.284.324l-.1.129a.142.142 0 0 0 .218.181l.108-.122a3.015 3.015 0 0 1 .277-.279 4.666 4.666 0 0 1 1-.656 7.056 7.056 0 0 1 1.128-.431c.113-.033.2-.054.283-.075a29.959 29.959 0 0 1 3.58 1.737c.277.171.556.338.816.525a8.517 8.517 0 0 1 .76.586 7.208 7.208 0 0 1 .67.666 5.156 5.156 0 0 1 .537.757 4.749 4.749 0 0 1 .382.849 7.434 7.434 0 0 1 .249.919 6.573 6.573 0 0 1 .138 1.887 3.769 3.769 0 0 1-.436 1.531c-1.057-.626-2.126-1.254-3.249-1.791a10.86 10.86 0 0 0-1.078-1.184c-.41-.38-.83-.746-1.264-1.09a29.755 29.755 0 0 0-2.71-1.913 26.131 26.131 0 0 0-5.789-2.743.259.259 0 0 0-.251-.148 33.318 33.318 0 0 0-4.168-3.4c-1.505-1.074-3.052-2.087-4.607-3.085 1.475 1.118 2.991 2.171 4.464 3.28a34.468 34.468 0 0 1 3.864 3.294c-.1.031-.2.068-.321.117a8.548 8.548 0 0 0-1.388.774 19.813 19.813 0 0 0-1.8 1.381.143.143 0 0 0-.021.2.14.14 0 0 0 .2.023 19.629 19.629 0 0 1 1.835-1.259 8.4 8.4 0 0 1 1.348-.661 3.137 3.137 0 0 1 .448-.124 21.884 21.884 0 0 1 5.894 2.806 28.927 28.927 0 0 1 2.612 1.934q.623.52 1.2 1.083c.26.263.5.537.734.814-.063.019-.127.033-.2.059a4.913 4.913 0 0 0-1.428.828 9.175 9.175 0 0 0-1.154 1.125c-.283.335-.462.565-.462.565a.142.142 0 0 0 .019.195.144.144 0 0 0 .2-.016s.185-.216.478-.525a8.869 8.869 0 0 1 1.16-1.02 4.489 4.489 0 0 1 1.332-.687 2 2 0 0 1 .427-.08c1.587.816 3.064 1.711 4.595 2.555.76.434 1.562.795 2.286 1.221a11.87 11.87 0 0 1 2.058 1.491 6.9 6.9 0 0 1 2.37 4.3 4.083 4.083 0 0 1-1.24 3.31c-.2-.176-.412-.345-.624-.509a26.3 26.3 0 0 0-5.31-3.217 30.057 30.057 0 0 0-5.821-1.911 42.4 42.4 0 0 0-13.342-8.276.259.259 0 0 0-.218-.227c-.752-.708-1.484-1.341-2.237-1.939-.842-.661-1.709-1.28-2.591-1.883-1.76-1.2-3.573-2.321-5.413-3.392 1.765 1.191 3.557 2.344 5.289 3.573.865.617 1.718 1.247 2.541 1.92a21.917 21.917 0 0 1 1.883 1.73 3.75 3.75 0 0 0-.464.077 5.751 5.751 0 0 0-1.883.86 9.41 9.41 0 0 0-1.545 1.325c-.2.195-.337.377-.445.5l-.167.19a.145.145 0 0 0 .01.2.141.141 0 0 0 .2-.007l.176-.185c.11-.11.256-.284.452-.464a8.965 8.965 0 0 1 1.536-1.212 5.271 5.271 0 0 1 1.765-.722 2.976 2.976 0 0 1 .6-.059 1.263 1.263 0 0 1 .211.014 41.883 41.883 0 0 1 7.071 3.6 44.07 44.07 0 0 1 5.73 4.445 4.522 4.522 0 0 0-1.662.767 8.2 8.2 0 0 0-1.259 1.123c-.307.34-.5.574-.5.574a.142.142 0 0 0 .216.185s.2-.22.513-.534a7.931 7.931 0 0 1 1.254-1.013 4.211 4.211 0 0 1 1.435-.607 2.112 2.112 0 0 1 .485-.04 34.672 34.672 0 0 1 5.882 2.037 26.025 26.025 0 0 1 5.214 3.074 10.8 10.8 0 0 1 3.737 4.581 4.037 4.037 0 0 1 .288 2.8 4.339 4.339 0 0 1-1.95 2.063 6.061 6.061 0 0 1-2.806.807 12.27 12.27 0 0 1-2.994-.237 25.314 25.314 0 0 1-5.16-1.674 5.657 5.657 0 0 0-.289-1.4 5.792 5.792 0 0 0-.607-1.362 7.314 7.314 0 0 0-.945-1.16 18.836 18.836 0 0 0-4.738-3.357 30.292 30.292 0 0 0-5.357-1.866 8.851 8.851 0 0 0-.619-.7c-.239-.258-.495-.492-.753-.727-.516-.467-1.057-.9-1.606-1.313a39.126 39.126 0 0 0-3.435-2.281 45.715 45.715 0 0 0-7.362-3.561 56.241 56.241 0 0 0-4.715-3.371c-1.632-1.06-3.284-2.084-4.975-3.048 1.583 1.132 3.188 2.225 4.768 3.35 1.416 1.015 2.816 2.061 4.129 3.188-.08.021-.159.042-.246.07a4.961 4.961 0 0 0-1.674.919 5.2 5.2 0 0 0-.713.727c-.1.127-.185.258-.272.378s-.146.246-.214.356a4.679 4.679 0 0 0-.274.556l-.1.216a.141.141 0 0 0 .256.12l.108-.211a4.094 4.094 0 0 1 .284-.516 3.32 3.32 0 0 1 .216-.326c.087-.108.174-.227.272-.342a4.983 4.983 0 0 1 .687-.64 4.525 4.525 0 0 1 1.559-.767 3.481 3.481 0 0 1 .616-.117c1.285.5 2.521 1.055 3.73 1.66s2.405 1.247 3.563 1.943a38.516 38.516 0 0 1 3.371 2.251c.532.408 1.059.828 1.552 1.278.248.225.492.45.717.694a4.185 4.185 0 0 1 .312.34c-.066.014-.126.026-.2.047a4.414 4.414 0 0 0-1.557.818 6 6 0 0 0-.663.649 5.9 5.9 0 0 0-.476.647 5.1 5.1 0 0 0-.286.488l-.1.188a.138.138 0 0 0 .049.188.141.141 0 0 0 .195-.045l.115-.185a5.044 5.044 0 0 1 .3-.45 5.422 5.422 0 0 1 .48-.589 5.256 5.256 0 0 1 .643-.572 3.95 3.95 0 0 1 1.427-.663 2.832 2.832 0 0 1 .488-.07.347.347 0 0 0 .122.075 34.486 34.486 0 0 1 5.347 1.808 18.279 18.279 0 0 1 4.607 3.184 5.237 5.237 0 0 1 1.44 2.283 3.367 3.367 0 0 1 .042 2.577 3.841 3.841 0 0 1-2.03 1.646 5.349 5.349 0 0 1-2.691.373 29.081 29.081 0 0 1-5.563-1.076c-1.831-.511-3.632-1.132-5.42-1.786-3.575-1.313-7.092-2.792-10.557-4.372-1.732-.795-3.453-1.611-5.144-2.48-1.174-.584-2.291-1.268-3.418-1.958a12.273 12.273 0 0 0-3.242-4.107 27.622 27.622 0 0 0-4.363-2.87c-3.3-1.906-9.715-2.663-9.828-2.71-.256-1.89-.574-3.77-.982-5.634q-.334-1.519-.743-3.02c-.249-.9-.516-1.779-.823-2.663a.461.461 0 0 0 .054-.127.419.419 0 0 0-.01-.188 26.259 26.259 0 0 0 1.688-2.623c.281-.5.546-1.017.785-1.545.117-.263.235-.53.338-.8a8.385 8.385 0 0 0 .281-.839.228.228 0 0 0-.438-.122 8.35 8.35 0 0 1-.284.788c-.105.258-.223.513-.342.769-.244.506-.516 1-.8 1.486a30.347 30.347 0 0 1-1.707 2.551c-.138-.026-.354-.066-.635-.108-.471-.07-1.1-.152-1.725-.218-1.254-.138-2.511-.211-2.511-.211a.145.145 0 0 0-.033.288s1.236.209 2.452.481c.61.131 1.215.279 1.662.4.316.084.544.152.656.185.3.867.563 1.761.8 2.656q.4 1.484.722 2.991a22.261 22.261 0 0 1 .425 5.575 10.657 10.657 0 0 0-2.084.638 14.513 14.513 0 0 0-1.918.968c-.5.3-.823.513-.823.513a.148.148 0 0 0-.047.19.146.146 0 0 0 .2.059s.335-.185.849-.431a14.071 14.071 0 0 1 1.934-.767 9.99 9.99 0 0 1 2-.422 6.058 6.058 0 0 1 .785.04 26.465 26.465 0 0 1 9.79 2.487 19.7 19.7 0 0 1 4.243 2.731 11.617 11.617 0 0 1 3.123 3.866 5.03 5.03 0 0 1 .5 2.354 2.789 2.789 0 0 1-.975 2.051 3.415 3.415 0 0 1-2.264.577 22.594 22.594 0 0 1-2.537-.166c-1.7-.192-3.385-.478-5.08-.753l-2.551-.4-2.555-.338-5.1-.678-2.551-.34a11.573 11.573 0 0 1-1.221-.19 2.353 2.353 0 0 1-.978-.581l-3.8-3.477-1.9-1.737-.949-.87c-.3-.286-.678-.588-.9-.849a2.248 2.248 0 0 1-.464-1l-.288-1.254-.574-2.509c-.385-1.674-.764-3.348-1.172-5.015l-2.353-9.826a.461.461 0 0 0 .019-.141s-.03-.387-.023-1 .052-1.435.136-2.253c.157-1.643.478-3.27.478-3.27a.189.189 0 0 0-.136-.216.186.186 0 0 0-.225.134s-.438 1.613-.717 3.27c-.146.828-.249 1.662-.3 2.3-.012.134-.019.26-.026.375l-8.658-5.5-9.281-5.819a.227.227 0 0 0-.244.382l9.174 5.988 9.026 5.814a.332.332 0 0 0 .073.108l2.262 9.823c.377 1.674.783 3.341 1.186 5.01l.6 2.5.3 1.252a3.035 3.035 0 0 0 .631 1.3c.347.389.656.612.978.917l.959.858 1.92 1.716 3.838 3.432a2.987 2.987 0 0 0 1.226.7 11.439 11.439 0 0 0 1.322.2l2.555.3 5.111.614c1.709.2 3.4.382 5.09.7 1.692.288 3.385.591 5.1.8a22.625 22.625 0 0 0 2.6.192 7.148 7.148 0 0 0 1.332-.1 2.938 2.938 0 0 0 .682-.2 2.991 2.991 0 0 0 .6-.373 3.371 3.371 0 0 0 1.2-2.448 4.949 4.949 0 0 0-.162-1.568c.893.53 1.793 1.05 2.731 1.505 1.714.86 3.448 1.662 5.2 2.44 3.5 1.545 7.042 2.987 10.648 4.267q2.7.96 5.47 1.747a29.436 29.436 0 0 0 5.655 1.132 8.819 8.819 0 0 0 1.472-.007 5.145 5.145 0 0 0 .746-.127 6.784 6.784 0 0 0 .7-.255 6.039 6.039 0 0 0 1.308-.727 3.213 3.213 0 0 0 1.01-1.161 2.837 2.837 0 0 0 .293-1.083 28.148 28.148 0 0 0 5.071 1.625 12.8 12.8 0 0 0 3.113.263 6.559 6.559 0 0 0 3.043-.86 4.852 4.852 0 0 0 2.183-2.323 4.582 4.582 0 0 0-.269-3.176z" opacity="0.8" transform="translate(-1312.926 -386.86)"/>
                            </g>
                            <g id="Group_22873" fill="#ffe5d0" transform="translate(47.595 61.672)">
                                <path id="Path_25669" d="M1343.419 416.53a1.1 1.1 0 0 0-.328-1.327c-1.306-1.1-4.684-2.014-7.005-1.8-3.292.309-2.82 3.1-2.377 3.66 3.967.6 5.8 1.062 7.575.792a2.859 2.859 0 0 0 2.135-1.325z" transform="translate(-1333.386 -413.375)"/>
                                <path id="Path_25670" d="M1335.244 413.455a2.373 2.373 0 0 0-1.531 3.5c.241.037.464.066.694.1.247-1.024 1.083-3.382.837-3.6z" transform="translate(-1333.392 -413.268)" style="isolation:isolate;mix-blend-mode:screen" opacity="0.3"/>
                            </g>
                            <path id="Path_25671" fill="#ffe5d0" d="M1342.846 415.4a48.72 48.72 0 0 1-9.858-.654 2.167 2.167 0 0 0 .237.408c4.429.682 6.016 1.036 8.023.921a2.759 2.759 0 0 0 2.558-1.214 1.518 1.518 0 0 1-.96.539z" transform="translate(-1286.34 -349.856)" style="mix-blend-mode:multiply;isolation:isolate" opacity="0.6"/>
                            <path id="Path_25672" fill="#ffb18f" d="M1332.221 417.512c-1.8-1.683-8.248-7.917-8.248-7.917.424-8.513 8.693-17.9 15.928-20.178l-3.388-2.065c-11.089-1.88-23.205 23.289-23.205 23.289l18.3 11.7c.144-1.511.592-4.794.613-4.829z" opacity="0.6" transform="translate(-1312.796 -386.824)"/>
                        </g>
                    </g>
                </g>
            </g>
            <g id="_15" transform="translate(25.403 4.595)">
                <path id="Path_25703" d="M1345.769 392.129l-21.493 12.409 41.02 23.683 7.774-.01z" transform="translate(-1322.039 -379.914)" style="mix-blend-mode:multiply;isolation:isolate" fill="#c2b3c6"/>
                <g id="Group_22955" transform="translate(-2.693 12)">
                    <g id="Axonometric_Cube" transform="translate(.01 15.592)">
                        <path id="Cube_face_-_left" d="M1382.527 434.426l-58.292-33.655V392.5l58.292 14.754z" class="cls-26" transform="translate(-1324.235 -392.501)"/>
                        <path id="Cube_face_-_right" d="M1372.108 409.364l-27 15.59v-27.17l27 3.311z" class="cls-27" transform="translate(-1286.814 -383.03)"/>
                    </g>
                    <g id="Group_22899">
                        <path id="Path_25704" d="M1382.541 436.18l-58.31-33.666 27.013-15.6 58.31 33.666z" class="cls-28" transform="translate(-1324.231 -386.919)"/>
                        <path id="Path_25705" d="M1349.339 387.35l-24.321 14.04 56.722 32.747 24.318-14.04zm36.172 43.763a4.789 4.789 0 0 1-4.326-.1l-50.748-29.3c-1.246-.718-1.324-1.838-.179-2.5l15.2-8.776a4.79 4.79 0 0 1 4.326.1l50.748 29.3c1.246.718 1.324 1.838.179 2.5z" class="cls-29" transform="translate(-1322.821 -386.145)"/>
                        <path id="Path_25706" d="M1361.773 394.616c-5.645-3.259-15.657-2.779-22.318 1.067s-7.5 9.63-1.852 12.887 15.655 2.779 22.319-1.067 7.493-9.63 1.851-12.887zm-24.036 13.875c-5.561-3.212-4.726-8.918 1.863-12.722s16.476-4.287 22.039-1.075 4.726 8.918-1.863 12.722-16.476 4.284-22.039 1.076z" class="cls-30" transform="translate(-1306.97 -376.995)"/>
                        <path id="Path_25707" d="M1359.106 407.031c-6.451 3.723-16.065 4.209-21.475 1.086s-4.564-8.672 1.885-12.4 16.065-4.209 21.475-1.086 4.564 8.669-1.885 12.4z" class="cls-30" transform="translate(-1306.593 -376.777)"/>
                        <path id="Path_25708" d="M1356.252 405.384c-5.51 3.181-13.724 3.6-18.344.927s-3.9-7.407 1.609-10.591 13.724-3.6 18.344-.927 3.902 7.407-1.609 10.591z" class="cls-28" transform="translate(-1305.167 -375.954)"/>
                        <g id="Group_22889" transform="translate(51.476 33.921)">
                            <path id="Path_25709" d="M1345.318 400.188l-1.946-1.124-.71.41 1.946 1.124z" class="cls-29" transform="translate(-1342.662 -399.064)"/>
                            <path id="Path_25710" d="M1344.437 399.679l-.71.41 8.372 4.834.71-.41z" class="cls-29" transform="translate(-1340.753 -397.961)"/>
                        </g>
                        <g id="Group_22890" transform="translate(13.935 12.247)">
                            <path id="Path_25711" d="M1331.877 392.427l-1.946-1.124-.71.41 1.946 1.124z" class="cls-29" transform="translate(-1329.221 -391.304)"/>
                            <path id="Path_25712" d="M1331 391.918l-.71.41 8.372 4.834.711-.41z" class="cls-29" transform="translate(-1327.311 -390.201)"/>
                        </g>
                        <g id="Group_22891" transform="translate(24.002 5.207)">
                            <path id="Path_25713" d="M1333.8 388.783l-.977.564 10.112 5.838.977-.564z" class="cls-29" transform="translate(-1332.825 -388.783)"/>
                        </g>
                        <g id="Group_22892" transform="translate(64.926 28.835)">
                            <path id="Path_25714" d="M1348.454 397.243l-.976.564 10.112 5.838.976-.564z" class="cls-30" transform="translate(-1347.478 -397.243)"/>
                        </g>
                        <g id="Group_22893" transform="translate(54.143 39.689)">
                            <path id="Path_25715" d="M1344.927 402.861l2.133-1.232c-.005-.036-1.092-.5-1.092-.5-.112.067.087.235.087.235.084.07.086.109-.045.184l-1.679.969a.252.252 0 0 1-.288.006l-.288-.142-.14.081 1.408.813.14-.078-.246-.168c-.088-.059-.104-.101.01-.168z" class="cls-29" transform="translate(-1343.617 -401.129)"/>
                            <path id="Path_25716" d="M1347.426 401.849a2.227 2.227 0 0 0-2.24.159c-.665.385-1.014.869-.277 1.293a2.214 2.214 0 0 0 2.24-.159c.664-.382 1.013-.865.277-1.293zm-2.349 1.357c-.324-.187.318-.6.732-.838s1.126-.609 1.449-.422-.318.6-.731.835-1.127.61-1.451.426z" class="cls-29" transform="translate(-1342.04 -400.263)"/>
                            <path id="Path_25717" d="M1348.215 402.306a2.226 2.226 0 0 0-2.24.159c-.665.385-1.011.869-.274 1.293a2.214 2.214 0 0 0 2.24-.159c.665-.382 1.011-.865.274-1.293zm-2.346 1.357c-.324-.187.316-.6.729-.838s1.128-.609 1.449-.422-.315.6-.729.835-1.125.61-1.449.426z" class="cls-29" transform="translate(-1340.621 -399.444)"/>
                        </g>
                        <g id="Group_22894" transform="translate(73.394 29.804)">
                            <path id="Path_25718" d="M1351.3 398.749l1.43-.824c-.006-.025-.732-.335-.732-.335-.075.042.058.156.058.156.056.047.059.073-.031.123l-1.123.651a.173.173 0 0 1-.193 0l-.2-.095c-.092.053.852.6.852.6.092-.053-.073-.165-.073-.165-.051-.038-.063-.066.012-.111z" class="cls-28" transform="translate(-1350.51 -397.59)"/>
                            <path id="Path_25719" d="M1353.029 398.072a1.487 1.487 0 0 0-1.5.106c-.447.257-.679.581-.184.866a1.486 1.486 0 0 0 1.5-.106c.444-.257.679-.581.184-.866zm-1.572.908c-.215-.126.212-.4.489-.559s.754-.408.972-.285-.212.4-.489.561-.754.409-.972.283z" class="cls-28" transform="translate(-1349.509 -397.011)"/>
                            <path id="Path_25720" d="M1353.559 398.379a1.488 1.488 0 0 0-1.5.106c-.446.257-.678.581-.184.866a1.487 1.487 0 0 0 1.5-.106c.444-.258.679-.582.184-.866zm-1.572.908c-.215-.126.212-.4.489-.559s.754-.408.972-.285-.213.4-.489.561-.759.408-.972.282z" class="cls-28" transform="translate(-1348.559 -396.463)"/>
                        </g>
                        <g id="Group_22895" transform="translate(29.053 4.201)">
                            <path id="Path_25721" d="M1335.425 389.585l1.427-.827c0-.025-.729-.335-.729-.335-.075.045.056.156.056.156.056.047.059.075-.028.126l-1.125.648a.174.174 0 0 1-.193.006l-.193-.095c-.092.053.849.6.849.6.092-.056-.073-.168-.073-.168-.058-.041-.069-.066.009-.111z" class="cls-28" transform="translate(-1334.634 -388.423)"/>
                            <path id="Path_25722" d="M1337.15 388.906a1.488 1.488 0 0 0-1.5.106c-.444.257-.676.581-.181.866a1.488 1.488 0 0 0 1.5-.106c.444-.257.676-.581.181-.866zm-1.569.908c-.218-.126.212-.4.489-.561s.754-.408.969-.282-.213.4-.489.559-.75.41-.969.284z" class="cls-28" transform="translate(-1333.633 -387.842)"/>
                            <path id="Path_25723" d="M1337.68 389.212a1.488 1.488 0 0 0-1.5.106c-.444.257-.676.581-.181.866a1.483 1.483 0 0 0 1.5-.106c.444-.257.676-.578.181-.866zm-1.57.908c-.218-.126.212-.4.489-.561s.754-.408.969-.282-.212.4-.489.559-.754.407-.968.284z" class="cls-28" transform="translate(-1332.683 -387.294)"/>
                        </g>
                        <g id="Group_22896" transform="translate(5.589 13.629)">
                            <path id="Path_25724" d="M1329 394.973l-.184.106a.619.619 0 0 1-.564-.014l-1.894-1.092c-.162-.092-.17-.237-.022-.324l.187-.109a.621.621 0 0 1 .536 0l.3.148 2.181-1.26-.226-.193a.163.163 0 0 1 .031-.288l.151-.087a.619.619 0 0 1 .514-.014l1.458.623c.12.067.167.12.176.176a.186.186 0 0 1-.092.223l-2.8 1.62.257.173c.136.097.133.231-.009.312zm7.753 2.807a3.519 3.519 0 0 1-3.572.2c-.748-.433-.877-.95-.411-1.477a3.217 3.217 0 0 1-2.558-.237c-1.025-.592-.9-1.343.346-2.061a3.52 3.52 0 0 1 3.572-.2c.748.433.874.95.408 1.477a3.222 3.222 0 0 1 2.561.237c1.027.591.901 1.343-.344 2.061z" class="cls-28" transform="translate(-1326.232 -391.799)"/>
                            <path id="Path_25725" d="M1328.137 394.207l2.863-1.653c-.008-.05-1.464-.673-1.464-.673l-.151.089.262.226c.115.092.118.145-.056.246l-2.257 1.3a.346.346 0 0 1-.385.008l-.388-.193-.187.106 1.891 1.092.187-.106-.332-.223c-.12-.076-.139-.126.017-.219z" class="cls-30" transform="translate(-1325.976 -391.651)"/>
                            <path id="Path_25726" d="M1331.488 392.85a2.984 2.984 0 0 0-3.008.212c-.893.517-1.36 1.165-.368 1.737a2.977 2.977 0 0 0 3.008-.212c.891-.517 1.36-1.165.368-1.737zm-3.153 1.821c-.433-.251.428-.8.983-1.126s1.511-.815 1.947-.564-.427.8-.983 1.123-1.511.818-1.947.567z" class="cls-30" transform="translate(-1323.859 -390.488)"/>
                            <path id="Path_25727" d="M1332.552 393.464a2.977 2.977 0 0 0-3.008.212c-.894.517-1.36 1.165-.369 1.737a2.978 2.978 0 0 0 3.008-.215c.891-.513 1.357-1.161.369-1.734zm-3.153 1.818c-.432-.249.425-.8.983-1.123s1.511-.818 1.944-.567-.425.8-.98 1.123-1.512.819-1.946.567z" class="cls-30" transform="translate(-1321.953 -389.388)"/>
                        </g>
                        <g id="Group_22897" transform="translate(58.088 32.22)">
                            <path id="Path_25728" d="M1352.354 399.268a6.825 6.825 0 0 0-6.17-.145c-1.634.944-1.522 2.539.255 3.561a6.826 6.826 0 0 0 6.17.148c1.633-.944 1.521-2.539-.255-3.564zm-5.594 3.232c-1.581-.913-1.684-2.335-.227-3.176a6.088 6.088 0 0 1 5.5.131c1.584.911 1.684 2.335.226 3.176a6.087 6.087 0 0 1-5.499-.131z" class="cls-30" transform="translate(-1345.029 -398.455)"/>
                        </g>
                        <g id="Group_22898" transform="translate(20.539 10.541)">
                            <path id="Path_25729" d="M1338.91 391.506a6.825 6.825 0 0 0-6.17-.145c-1.634.944-1.522 2.539.254 3.561a6.826 6.826 0 0 0 6.17.148c1.636-.944 1.523-2.539-.254-3.564zm-5.595 3.231c-1.58-.913-1.684-2.335-.226-3.176a6.088 6.088 0 0 1 5.5.131c1.581.911 1.684 2.335.226 3.176a6.088 6.088 0 0 1-5.499-.131z" class="cls-30" transform="translate(-1331.585 -390.693)"/>
                        </g>
                        <path id="Path_25730" d="M1350.387 400.22a.869.869 0 0 1-.673-.377.834.834 0 0 0-.687-.469l-.165-.025a.82.82 0 0 1-.645-.371.5.5 0 0 0-.623-.131l-1.536.885a.363.363 0 0 0-.215.327l.1 1.416c.092.053 2.544.112 2.544.112a1.093 1.093 0 0 0 .567-.126l1.536-.885c.194-.113.08-.315-.203-.356z" class="cls-29" transform="translate(-1285.483 -365.634)"/>
                        <path id="Path_25731" d="M1336.938 392.453a.848.848 0 0 1-.673-.377.846.846 0 0 0-.69-.466l-.162-.025a.841.841 0 0 1-.648-.374.494.494 0 0 0-.62-.131l-1.536.885a.364.364 0 0 0-.215.33l.1 1.413c.093.053 2.542.112 2.542.112a1.124 1.124 0 0 0 .57-.123l1.533-.888c.192-.109.078-.309-.201-.356z" class="cls-29" transform="translate(-1309.598 -379.557)"/>
                        <path id="Path_25732" d="M1348.26 399.1l-.615-.718 3.832-2.212c.433.355.589.919-.207 1.983-.2.277-.179.478.265.735a3.089 3.089 0 0 0 2.628.207c.782-.452.779-1.849-1.832-3.419l1.489-.86-1.131-.654-1.486.86c-2.4-1.3-5.41-1.748-7.753-.4-1.732 1-1.327 2.327-.142 3.743l.7.81-4.371 2.522c-.33-.276-.723-.91.26-2.34.226-.341.19-.575-.293-.857a3.509 3.509 0 0 0-2.8-.064c-.631.363-1.307 1.734 1.972 3.756l-1.933 1.117 1.131.654 1.933-1.117c1.857 1.073 5.407 1.983 8.108.45 2.027-1.196 1.642-2.533.245-4.196zm-1.335-1.609c-.749-.709-.939-1.486-.045-2a3.845 3.845 0 0 1 3.466.028zm-6.161 4.863l4.019-2.318a1.407 1.407 0 0 1-.45 2.38 3.63 3.63 0 0 1-3.57-.064z" class="cls-29" transform="translate(-1302.624 -374.575)"/>
                        <path id="Path_25733" d="M1345.017 402.519l-4.96-2.864.277-.16 4.96 2.864z" class="cls-30" transform="translate(-1295.856 -364.368)"/>
                        <path id="Path_25734" d="M1336.017 397.323l-4.96-2.864.277-.16 4.96 2.864z" class="cls-30" transform="translate(-1311.992 -373.684)"/>
                    </g>
                    <g id="Group_22900" transform="translate(23.047 13.305)">
                        <path id="Path_25735" d="M1359.561 391.719l11.629 6.714-27.015 15.6-11.629-6.714z" class="cls-31" transform="translate(-1332.37 -391.617)"/>
                        <path id="Path_25736" d="M1332.546 405.635l11.63 6.709v-8.332l-11.63-6.709z" class="cls-32" transform="translate(-1332.37 -381.604)"/>
                        <path id="Path_25737" d="M1333.939 408.12l27.016-15.6-1.456-.841-27.015 15.6v8.331l1.456.84z" class="cls-14" transform="translate(-1332.483 -391.682)"/>
                        <path id="Path_25738" d="M1337.728 410.308l27.016-15.6-1.456-.841-27.015 15.6v8.333l1.456.84z" class="cls-14" transform="translate(-1325.689 -387.76)"/>
                        <path id="Path_25739" d="M1333.939 398.107l-1.456-.84v8.333l1.456.84z" class="cls-14" transform="translate(-1332.483 -381.669)"/>
                        <path id="Path_25740" d="M1337.728 400.3l-1.456-.84v8.331l1.456.84z" class="cls-14" transform="translate(-1325.689 -377.747)"/>
                    </g>
                </g>
                <g id="Group_22901" transform="translate(2.133 -2)">
                    <g id="Axonometric_Cube-2" transform="translate(.01 15.592)">
                        <path id="Cube_face_-_left-2" d="M1382.527 434.426l-58.292-33.655V392.5l58.292 14.754z" class="cls-26" transform="translate(-1324.235 -392.501)"/>
                        <path id="Cube_face_-_right-2" d="M1372.108 409.364l-27 15.59v-27.17l27 3.311z" class="cls-27" transform="translate(-1286.814 -383.03)"/>
                    </g>
                    <g id="Group_22899-2">
                        <path id="Path_25704-2" d="M1382.541 436.18l-58.31-33.666 27.013-15.6 58.31 33.666z" class="cls-28" transform="translate(-1324.231 -386.919)"/>
                        <path id="Path_25705-2" d="M1349.339 387.35l-24.321 14.04 56.722 32.747 24.318-14.04zm36.172 43.763a4.789 4.789 0 0 1-4.326-.1l-50.748-29.3c-1.246-.718-1.324-1.838-.179-2.5l15.2-8.776a4.79 4.79 0 0 1 4.326.1l50.748 29.3c1.246.718 1.324 1.838.179 2.5z" class="cls-29" transform="translate(-1322.821 -386.145)"/>
                        <path id="Path_25706-2" d="M1361.773 394.616c-5.645-3.259-15.657-2.779-22.318 1.067s-7.5 9.63-1.852 12.887 15.655 2.779 22.319-1.067 7.493-9.63 1.851-12.887zm-24.036 13.875c-5.561-3.212-4.726-8.918 1.863-12.722s16.476-4.287 22.039-1.075 4.726 8.918-1.863 12.722-16.476 4.284-22.039 1.076z" class="cls-30" transform="translate(-1306.97 -376.995)"/>
                        <path id="Path_25707-2" d="M1359.106 407.031c-6.451 3.723-16.065 4.209-21.475 1.086s-4.564-8.672 1.885-12.4 16.065-4.209 21.475-1.086 4.564 8.669-1.885 12.4z" class="cls-30" transform="translate(-1306.593 -376.777)"/>
                        <path id="Path_25708-2" d="M1356.252 405.384c-5.51 3.181-13.724 3.6-18.344.927s-3.9-7.407 1.609-10.591 13.724-3.6 18.344-.927 3.902 7.407-1.609 10.591z" class="cls-28" transform="translate(-1305.167 -375.954)"/>
                        <g id="Group_22889-2" transform="translate(51.476 33.921)">
                            <path id="Path_25709-2" d="M1345.318 400.188l-1.946-1.124-.71.41 1.946 1.124z" class="cls-29" transform="translate(-1342.662 -399.064)"/>
                            <path id="Path_25710-2" d="M1344.437 399.679l-.71.41 8.372 4.834.71-.41z" class="cls-29" transform="translate(-1340.753 -397.961)"/>
                        </g>
                        <g id="Group_22890-2" transform="translate(13.935 12.247)">
                            <path id="Path_25711-2" d="M1331.877 392.427l-1.946-1.124-.71.41 1.946 1.124z" class="cls-29" transform="translate(-1329.221 -391.304)"/>
                            <path id="Path_25712-2" d="M1331 391.918l-.71.41 8.372 4.834.711-.41z" class="cls-29" transform="translate(-1327.311 -390.201)"/>
                        </g>
                        <g id="Group_22891-2" transform="translate(24.002 5.207)">
                            <path id="Path_25713-2" d="M1333.8 388.783l-.977.564 10.112 5.838.977-.564z" class="cls-29" transform="translate(-1332.825 -388.783)"/>
                        </g>
                        <g id="Group_22892-2" transform="translate(64.926 28.835)">
                            <path id="Path_25714-2" d="M1348.454 397.243l-.976.564 10.112 5.838.976-.564z" class="cls-30" transform="translate(-1347.478 -397.243)"/>
                        </g>
                        <g id="Group_22893-2" transform="translate(54.143 39.689)">
                            <path id="Path_25715-2" d="M1344.927 402.861l2.133-1.232c-.005-.036-1.092-.5-1.092-.5-.112.067.087.235.087.235.084.07.086.109-.045.184l-1.679.969a.252.252 0 0 1-.288.006l-.288-.142-.14.081 1.408.813.14-.078-.246-.168c-.088-.059-.104-.101.01-.168z" class="cls-29" transform="translate(-1343.617 -401.129)"/>
                            <path id="Path_25716-2" d="M1347.426 401.849a2.227 2.227 0 0 0-2.24.159c-.665.385-1.014.869-.277 1.293a2.214 2.214 0 0 0 2.24-.159c.664-.382 1.013-.865.277-1.293zm-2.349 1.357c-.324-.187.318-.6.732-.838s1.126-.609 1.449-.422-.318.6-.731.835-1.127.61-1.451.426z" class="cls-29" transform="translate(-1342.04 -400.263)"/>
                            <path id="Path_25717-2" d="M1348.215 402.306a2.226 2.226 0 0 0-2.24.159c-.665.385-1.011.869-.274 1.293a2.214 2.214 0 0 0 2.24-.159c.665-.382 1.011-.865.274-1.293zm-2.346 1.357c-.324-.187.316-.6.729-.838s1.128-.609 1.449-.422-.315.6-.729.835-1.125.61-1.449.426z" class="cls-29" transform="translate(-1340.621 -399.444)"/>
                        </g>
                        <g id="Group_22894-2" transform="translate(73.394 29.804)">
                            <path id="Path_25718-2" d="M1351.3 398.749l1.43-.824c-.006-.025-.732-.335-.732-.335-.075.042.058.156.058.156.056.047.059.073-.031.123l-1.123.651a.173.173 0 0 1-.193 0l-.2-.095c-.092.053.852.6.852.6.092-.053-.073-.165-.073-.165-.051-.038-.063-.066.012-.111z" class="cls-28" transform="translate(-1350.51 -397.59)"/>
                            <path id="Path_25719-2" d="M1353.029 398.072a1.487 1.487 0 0 0-1.5.106c-.447.257-.679.581-.184.866a1.486 1.486 0 0 0 1.5-.106c.444-.257.679-.581.184-.866zm-1.572.908c-.215-.126.212-.4.489-.559s.754-.408.972-.285-.212.4-.489.561-.754.409-.972.283z" class="cls-28" transform="translate(-1349.509 -397.011)"/>
                            <path id="Path_25720-2" d="M1353.559 398.379a1.488 1.488 0 0 0-1.5.106c-.446.257-.678.581-.184.866a1.487 1.487 0 0 0 1.5-.106c.444-.258.679-.582.184-.866zm-1.572.908c-.215-.126.212-.4.489-.559s.754-.408.972-.285-.213.4-.489.561-.759.408-.972.282z" class="cls-28" transform="translate(-1348.559 -396.463)"/>
                        </g>
                        <g id="Group_22895-2" transform="translate(29.053 4.201)">
                            <path id="Path_25721-2" d="M1335.425 389.585l1.427-.827c0-.025-.729-.335-.729-.335-.075.045.056.156.056.156.056.047.059.075-.028.126l-1.125.648a.174.174 0 0 1-.193.006l-.193-.095c-.092.053.849.6.849.6.092-.056-.073-.168-.073-.168-.058-.041-.069-.066.009-.111z" class="cls-28" transform="translate(-1334.634 -388.423)"/>
                            <path id="Path_25722-2" d="M1337.15 388.906a1.488 1.488 0 0 0-1.5.106c-.444.257-.676.581-.181.866a1.488 1.488 0 0 0 1.5-.106c.444-.257.676-.581.181-.866zm-1.569.908c-.218-.126.212-.4.489-.561s.754-.408.969-.282-.213.4-.489.559-.75.41-.969.284z" class="cls-28" transform="translate(-1333.633 -387.842)"/>
                            <path id="Path_25723-2" d="M1337.68 389.212a1.488 1.488 0 0 0-1.5.106c-.444.257-.676.581-.181.866a1.483 1.483 0 0 0 1.5-.106c.444-.257.676-.578.181-.866zm-1.57.908c-.218-.126.212-.4.489-.561s.754-.408.969-.282-.212.4-.489.559-.754.407-.968.284z" class="cls-28" transform="translate(-1332.683 -387.294)"/>
                        </g>
                        <g id="Group_22896-2" transform="translate(5.589 13.629)">
                            <path id="Path_25724-2" d="M1329 394.973l-.184.106a.619.619 0 0 1-.564-.014l-1.894-1.092c-.162-.092-.17-.237-.022-.324l.187-.109a.621.621 0 0 1 .536 0l.3.148 2.181-1.26-.226-.193a.163.163 0 0 1 .031-.288l.151-.087a.619.619 0 0 1 .514-.014l1.458.623c.12.067.167.12.176.176a.186.186 0 0 1-.092.223l-2.8 1.62.257.173c.136.097.133.231-.009.312zm7.753 2.807a3.519 3.519 0 0 1-3.572.2c-.748-.433-.877-.95-.411-1.477a3.217 3.217 0 0 1-2.558-.237c-1.025-.592-.9-1.343.346-2.061a3.52 3.52 0 0 1 3.572-.2c.748.433.874.95.408 1.477a3.222 3.222 0 0 1 2.561.237c1.027.591.901 1.343-.344 2.061z" class="cls-28" transform="translate(-1326.232 -391.799)"/>
                            <path id="Path_25725-2" d="M1328.137 394.207l2.863-1.653c-.008-.05-1.464-.673-1.464-.673l-.151.089.262.226c.115.092.118.145-.056.246l-2.257 1.3a.346.346 0 0 1-.385.008l-.388-.193-.187.106 1.891 1.092.187-.106-.332-.223c-.12-.076-.139-.126.017-.219z" class="cls-30" transform="translate(-1325.976 -391.651)"/>
                            <path id="Path_25726-2" d="M1331.488 392.85a2.984 2.984 0 0 0-3.008.212c-.893.517-1.36 1.165-.368 1.737a2.977 2.977 0 0 0 3.008-.212c.891-.517 1.36-1.165.368-1.737zm-3.153 1.821c-.433-.251.428-.8.983-1.126s1.511-.815 1.947-.564-.427.8-.983 1.123-1.511.818-1.947.567z" class="cls-30" transform="translate(-1323.859 -390.488)"/>
                            <path id="Path_25727-2" d="M1332.552 393.464a2.977 2.977 0 0 0-3.008.212c-.894.517-1.36 1.165-.369 1.737a2.978 2.978 0 0 0 3.008-.215c.891-.513 1.357-1.161.369-1.734zm-3.153 1.818c-.432-.249.425-.8.983-1.123s1.511-.818 1.944-.567-.425.8-.98 1.123-1.512.819-1.946.567z" class="cls-30" transform="translate(-1321.953 -389.388)"/>
                        </g>
                        <g id="Group_22897-2" transform="translate(58.088 32.22)">
                            <path id="Path_25728-2" d="M1352.354 399.268a6.825 6.825 0 0 0-6.17-.145c-1.634.944-1.522 2.539.255 3.561a6.826 6.826 0 0 0 6.17.148c1.633-.944 1.521-2.539-.255-3.564zm-5.594 3.232c-1.581-.913-1.684-2.335-.227-3.176a6.088 6.088 0 0 1 5.5.131c1.584.911 1.684 2.335.226 3.176a6.087 6.087 0 0 1-5.499-.131z" class="cls-30" transform="translate(-1345.029 -398.455)"/>
                        </g>
                        <g id="Group_22898-2" transform="translate(20.539 10.541)">
                            <path id="Path_25729-2" d="M1338.91 391.506a6.825 6.825 0 0 0-6.17-.145c-1.634.944-1.522 2.539.254 3.561a6.826 6.826 0 0 0 6.17.148c1.636-.944 1.523-2.539-.254-3.564zm-5.595 3.231c-1.58-.913-1.684-2.335-.226-3.176a6.088 6.088 0 0 1 5.5.131c1.581.911 1.684 2.335.226 3.176a6.088 6.088 0 0 1-5.499-.131z" class="cls-30" transform="translate(-1331.585 -390.693)"/>
                        </g>
                        <path id="Path_25730-2" d="M1350.387 400.22a.869.869 0 0 1-.673-.377.834.834 0 0 0-.687-.469l-.165-.025a.82.82 0 0 1-.645-.371.5.5 0 0 0-.623-.131l-1.536.885a.363.363 0 0 0-.215.327l.1 1.416c.092.053 2.544.112 2.544.112a1.093 1.093 0 0 0 .567-.126l1.536-.885c.194-.113.08-.315-.203-.356z" class="cls-29" transform="translate(-1285.483 -365.634)"/>
                        <path id="Path_25731-2" d="M1336.938 392.453a.848.848 0 0 1-.673-.377.846.846 0 0 0-.69-.466l-.162-.025a.841.841 0 0 1-.648-.374.494.494 0 0 0-.62-.131l-1.536.885a.364.364 0 0 0-.215.33l.1 1.413c.093.053 2.542.112 2.542.112a1.124 1.124 0 0 0 .57-.123l1.533-.888c.192-.109.078-.309-.201-.356z" class="cls-29" transform="translate(-1309.598 -379.557)"/>
                        <path id="Path_25732-2" d="M1348.26 399.1l-.615-.718 3.832-2.212c.433.355.589.919-.207 1.983-.2.277-.179.478.265.735a3.089 3.089 0 0 0 2.628.207c.782-.452.779-1.849-1.832-3.419l1.489-.86-1.131-.654-1.486.86c-2.4-1.3-5.41-1.748-7.753-.4-1.732 1-1.327 2.327-.142 3.743l.7.81-4.371 2.522c-.33-.276-.723-.91.26-2.34.226-.341.19-.575-.293-.857a3.509 3.509 0 0 0-2.8-.064c-.631.363-1.307 1.734 1.972 3.756l-1.933 1.117 1.131.654 1.933-1.117c1.857 1.073 5.407 1.983 8.108.45 2.027-1.196 1.642-2.533.245-4.196zm-1.335-1.609c-.749-.709-.939-1.486-.045-2a3.845 3.845 0 0 1 3.466.028zm-6.161 4.863l4.019-2.318a1.407 1.407 0 0 1-.45 2.38 3.63 3.63 0 0 1-3.57-.064z" class="cls-29" transform="translate(-1302.624 -374.575)"/>
                        <path id="Path_25733-2" d="M1345.017 402.519l-4.96-2.864.277-.16 4.96 2.864z" class="cls-30" transform="translate(-1295.856 -364.368)"/>
                        <path id="Path_25734-2" d="M1336.017 397.323l-4.96-2.864.277-.16 4.96 2.864z" class="cls-30" transform="translate(-1311.992 -373.684)"/>
                    </g>
                    <g id="Group_22900-2" transform="translate(23.047 13.305)">
                        <path id="Path_25735-2" d="M1359.561 391.719l11.629 6.714-27.015 15.6-11.629-6.714z" class="cls-31" transform="translate(-1332.37 -391.617)"/>
                        <path id="Path_25736-2" d="M1332.546 405.635l11.63 6.709v-8.332l-11.63-6.709z" class="cls-32" transform="translate(-1332.37 -381.604)"/>
                        <path id="Path_25737-2" d="M1333.939 408.12l27.016-15.6-1.456-.841-27.015 15.6v8.331l1.456.84z" class="cls-14" transform="translate(-1332.483 -391.682)"/>
                        <path id="Path_25738-2" d="M1337.728 410.308l27.016-15.6-1.456-.841-27.015 15.6v8.333l1.456.84z" class="cls-14" transform="translate(-1325.689 -387.76)"/>
                        <path id="Path_25739-2" d="M1333.939 398.107l-1.456-.84v8.333l1.456.84z" class="cls-14" transform="translate(-1332.483 -381.669)"/>
                        <path id="Path_25740-2" d="M1337.728 400.3l-1.456-.84v8.331l1.456.84z" class="cls-14" transform="translate(-1325.689 -377.747)"/>
                    </g>
                </g>
            </g>
        </g>
    </g>
</svg>
