<svg xmlns="http://www.w3.org/2000/svg" width="222.53" height="197.56" viewBox="0 0 222.53 197.56">
    <defs>
        <filter id="Path_25573" width="40.956" height="37.674" x="146.125" y="117.538" filterUnits="userSpaceOnUse">
            <feOffset dy="7"/>
            <feGaussianBlur result="blur" stdDeviation="4"/>
            <feFlood flood-color="#c99a65" flood-opacity=".259"/>
            <feComposite in2="blur" operator="in"/>
            <feComposite in="SourceGraphic"/>
        </filter>
        <filter id="Path_25576" width="30.322" height="34.294" x="132.668" y="48.485" filterUnits="userSpaceOnUse">
            <feOffset dy="7"/>
            <feGaussianBlur result="blur-2" stdDeviation="4"/>
            <feFlood flood-color="#c99a65" flood-opacity=".259"/>
            <feComposite in2="blur-2" operator="in"/>
            <feComposite in="SourceGraphic"/>
        </filter>
        <filter id="Path_25577" width="29.98" height="35.184" x="138.555" y="45.762" filterUnits="userSpaceOnUse">
            <feOffset dy="7"/>
            <feGaussianBlur result="blur-3" stdDeviation="4"/>
            <feFlood flood-color="#c99a65" flood-opacity=".259"/>
            <feComposite in2="blur-3" operator="in"/>
            <feComposite in="SourceGraphic"/>
        </filter>
        <filter id="Path_25578" width="29.084" height="35.982" x="144.05" y="41.86" filterUnits="userSpaceOnUse">
            <feOffset dy="7"/>
            <feGaussianBlur result="blur-4" stdDeviation="4"/>
            <feFlood flood-color="#c99a65" flood-opacity=".259"/>
            <feComposite in2="blur-4" operator="in"/>
            <feComposite in="SourceGraphic"/>
        </filter>
        <filter id="Path_25579" width="31.143" height="35.722" x="148.07" y="39.85" filterUnits="userSpaceOnUse">
            <feOffset dy="7"/>
            <feGaussianBlur result="blur-5" stdDeviation="4"/>
            <feFlood flood-color="#c99a65" flood-opacity=".259"/>
            <feComposite in2="blur-5" operator="in"/>
            <feComposite in="SourceGraphic"/>
        </filter>
        <filter id="Path_25580" width="29.364" height="35.163" x="153.795" y="36.321" filterUnits="userSpaceOnUse">
            <feOffset dy="7"/>
            <feGaussianBlur result="blur-6" stdDeviation="4"/>
            <feFlood flood-color="#c99a65" flood-opacity=".259"/>
            <feComposite in2="blur-6" operator="in"/>
            <feComposite in="SourceGraphic"/>
        </filter>
        <filter id="Path_25581" width="28.832" height="35.589" x="158.671" y="33.991" filterUnits="userSpaceOnUse">
            <feOffset dy="7"/>
            <feGaussianBlur result="blur-7" stdDeviation="4"/>
            <feFlood flood-color="#c99a65" flood-opacity=".259"/>
            <feComposite in2="blur-7" operator="in"/>
            <feComposite in="SourceGraphic"/>
        </filter>
        <filter id="Path_25582" width="30.726" height="35.296" x="164.393" y="31.051" filterUnits="userSpaceOnUse">
            <feOffset dy="7"/>
            <feGaussianBlur result="blur-8" stdDeviation="4"/>
            <feFlood flood-color="#c99a65" flood-opacity=".259"/>
            <feComposite in2="blur-8" operator="in"/>
            <feComposite in="SourceGraphic"/>
        </filter>
        <filter id="Path_25583" width="29.517" height="33.486" x="170.09" y="28.32" filterUnits="userSpaceOnUse">
            <feOffset dy="7"/>
            <feGaussianBlur result="blur-9" stdDeviation="4"/>
            <feFlood flood-color="#c99a65" flood-opacity=".259"/>
            <feComposite in2="blur-9" operator="in"/>
            <feComposite in="SourceGraphic"/>
        </filter>
        <filter id="Path_25584" width="29.422" height="33.385" x="174.764" y="25.8" filterUnits="userSpaceOnUse">
            <feOffset dy="7"/>
            <feGaussianBlur result="blur-10" stdDeviation="4"/>
            <feFlood flood-color="#c99a65" flood-opacity=".259"/>
            <feComposite in2="blur-10" operator="in"/>
            <feComposite in="SourceGraphic"/>
        </filter>
        <filter id="Path_25585" width="29.813" height="33.272" x="179.339" y="23.334" filterUnits="userSpaceOnUse">
            <feOffset dy="7"/>
            <feGaussianBlur result="blur-11" stdDeviation="4"/>
            <feFlood flood-color="#c99a65" flood-opacity=".259"/>
            <feComposite in2="blur-11" operator="in"/>
            <feComposite in="SourceGraphic"/>
        </filter>
        <filter id="Path_25586" width="28.976" height="34.188" x="184.754" y="19.583" filterUnits="userSpaceOnUse">
            <feOffset dy="7"/>
            <feGaussianBlur result="blur-12" stdDeviation="4"/>
            <feFlood flood-color="#c99a65" flood-opacity=".259"/>
            <feComposite in2="blur-12" operator="in"/>
            <feComposite in="SourceGraphic"/>
        </filter>
        <filter id="Path_25587" width="28.933" height="35.154" x="189.534" y="16.991" filterUnits="userSpaceOnUse">
            <feOffset dy="7"/>
            <feGaussianBlur result="blur-13" stdDeviation="4"/>
            <feFlood flood-color="#c99a65" flood-opacity=".259"/>
            <feComposite in2="blur-13" operator="in"/>
            <feComposite in="SourceGraphic"/>
        </filter>
        <filter id="Path_25588" width="28.628" height="34.202" x="193.902" y="14.766" filterUnits="userSpaceOnUse">
            <feOffset dy="7"/>
            <feGaussianBlur result="blur-14" stdDeviation="4"/>
            <feFlood flood-color="#c99a65" flood-opacity=".259"/>
            <feComposite in2="blur-14" operator="in"/>
            <feComposite in="SourceGraphic"/>
        </filter>
        <linearGradient id="linear-gradient" x1=".5" x2=".5" y2="1.131" gradientUnits="objectBoundingBox">
            <stop offset="0" stop-color="#d4c8ba" stop-opacity=".502"/>
            <stop offset="1" stop-color="#d4c8ba" stop-opacity=".502"/>
        </linearGradient>
        <linearGradient id="linear-gradient-2" x1=".04" x2=".735" y1=".5" y2=".5" gradientUnits="objectBoundingBox">
            <stop offset="0" stop-color="#878787"/>
            <stop offset="1" stop-color="#3a3f49"/>
        </linearGradient>
        <linearGradient id="linear-gradient-3" x1="-3.533" x2="-3.585" y1=".335" y2=".378" gradientUnits="objectBoundingBox">
            <stop offset="0" stop-color="#f6f4f7"/>
            <stop offset="1" stop-color="#c0b9c8"/>
        </linearGradient>
        <linearGradient id="linear-gradient-4" x1=".479" x2="-.038" y1=".59" y2="-.256" gradientUnits="objectBoundingBox">
            <stop offset="0" stop-color="#ce9d63"/>
            <stop offset="1" stop-color="#ad8b70"/>
        </linearGradient>
        <style>
            .cls-4{fill:#353131}.cls-5{fill:#c5bfcd}.cls-6{fill:#f6f4f7}.cls-8{fill:#191414}.cls-9{fill:#c6c6c6;opacity:.1}.cls-13{fill:#fff}.cls-15{fill:url(#linear-gradient-4);stroke:transparent}
        </style>
    </defs>
    <g id="Illustration-OpenAccount" transform="translate(18)">
        <g id="Group_22840">
            <g id="Group_22834">
                <path id="Path_25552" fill="url(#linear-gradient)" d="M1507.8 151.383a5.19 5.19 0 0 0-2.591.694l-77.489 44.739c-.292.169-1.291.569-.894 1.1a4.35 4.35 0 0 0 1.9.513l108.43 3.511 37.046-47.047z" transform="translate(-1426.732 -22.382)"/>
                <path id="Path_25553" fill="url(#linear-gradient-2)" d="M1472.714 257.369l-.233-125.8 77.445-44.711c2.586-2.052 5.05-.821 5.055 1.477l.042 122.162c0 .924-2.911 5.659-3.712 6.122l-75.458 43.523c-2.114.587-3.139-1.597-3.139-2.773z" transform="translate(-1364.921 -83.953)"/>
                <path id="Path_25554" fill="url(#linear-gradient-3)" d="M1555.255 86.622a3.635 3.635 0 0 0-3.665.362l-72.89 42.181a11.312 11.312 0 0 0-5.125 8.9l.134 123.215a3.609 3.609 0 0 0 1.507 3.3l-2.163-1.255a3.608 3.608 0 0 1-1.507-3.3l-.134-123.215a11.312 11.312 0 0 1 5.125-8.9l72.891-42.181a3.631 3.631 0 0 1 3.663-.362z" transform="translate(-1366.366 -85.021)"/>
                <path id="Path_25555" d="M1550.347 86.263l-72.891 42.181a11.312 11.312 0 0 0-5.125 8.9l.134 123.215c.012 3.268 2.328 4.585 5.17 2.941l72.893-42.181a11.314 11.314 0 0 0 5.123-8.9l-.134-123.219c-.012-3.266-2.328-4.582-5.17-2.937zm-72.007 42.928l72.879-42.171a2.212 2.212 0 0 1 3.32 1.911l.113 120.737a3.329 3.329 0 0 1-1.662 2.887l-77.379 44.779a1.392 1.392 0 0 1-2.09-1.2l-.11-118.377a9.879 9.879 0 0 1 4.929-8.565z" class="cls-4" transform="translate(-1365.123 -84.3)"/>
            </g>
            <g id="Group_22835" transform="translate(104.664 60.45)">
                <path id="Path_25556" d="M1472.836 116.264l.01 9.376c0 .444-.312.621-.7.4l-.191-.111a1.532 1.532 0 0 1-.7-1.2l-.01-9.374c0-.442.315-.621.7-.4l.193.111a1.536 1.536 0 0 1 .698 1.198z" class="cls-5" transform="translate(-1471.249 -105.159)"/>
                <path id="Path_25557" d="M1472.831 115.194a1.671 1.671 0 0 1 .268.423 1.31 1.31 0 0 1 .122.522l.01 9.376a.489.489 0 0 1-.2.449l-.5.292a.485.485 0 0 0 .2-.447l-.01-9.376a1.3 1.3 0 0 0-.122-.522 1.619 1.619 0 0 0-.271-.423 1.232 1.232 0 0 0-.3-.256l-.193-.111a.481.481 0 0 0-.494-.047l.5-.294a.492.492 0 0 1 .494.047l.193.111a1.259 1.259 0 0 1 .303.256z" class="cls-6" transform="translate(-1471.131 -105.327)"/>
                <path id="Path_25558" d="M1472.837 111.192a1.726 1.726 0 0 1 .268.423 1.318 1.318 0 0 1 .122.524v4.444a.49.49 0 0 1-.2.449l-.5.294a.494.494 0 0 0 .2-.449v-4.444a1.309 1.309 0 0 0-.122-.524 1.652 1.652 0 0 0-.271-.423 1.28 1.28 0 0 0-.3-.256l-.193-.11a.492.492 0 0 0-.494-.047l.5-.292a.481.481 0 0 1 .494.047l.193.111a1.189 1.189 0 0 1 .303.253z" class="cls-6" transform="translate(-1471.123 -110.732)"/>
                <path id="Path_25559" d="M1472.842 112.265v4.444c0 .444-.313.623-.7.4l-.191-.11a1.533 1.533 0 0 1-.7-1.2v-4.444c0-.44.315-.621.7-.4l.193.11a1.538 1.538 0 0 1 .698 1.2z" class="cls-5" transform="translate(-1471.241 -110.564)"/>
            </g>
            <path id="Path_25560" d="M1511.963 96.46l-26.443 15.267-1.707-2.915 29.858-17.239z" class="cls-4" transform="translate(-1349.611 -76.167)"/>
            <g id="Group_22836" transform="translate(148.283 148.549)">
                <path id="Path_25561" fill="#262424" d="M1497.764 149.206v1.587a2.867 2.867 0 0 1-1.389 2.217l-4.9 2.835a1.537 1.537 0 0 1-.759.233.892.892 0 0 1-.891-.987v-1.585a2.87 2.87 0 0 1 1.389-2.217l4.9-2.838a1.542 1.542 0 0 1 .757-.23.889.889 0 0 1 .893.985z" transform="translate(-1489.775 -148.181)"/>
                <path id="Path_25562" d="M1497.4 148.963v1.6a2.885 2.885 0 0 1-1.4 2.234l-4.942 2.859a1.572 1.572 0 0 1-.764.233.936.936 0 0 1-.249-.049 1.058 1.058 0 0 1-.242-.71v-1.6a2.88 2.88 0 0 1 1.4-2.234l4.94-2.859a1.553 1.553 0 0 1 .764-.233.974.974 0 0 1 .252.047 1.06 1.06 0 0 1 .241.712z" class="cls-4" transform="translate(-1489.802 -148.204)"/>
            </g>
            <g id="Group_22839" transform="translate(148.956 24.505)">
                <g id="Group_22837">
                    <path id="Path_25563" d="M1490.88 95.553a1.746 1.746 0 0 0-.792 1.373c0 .505.357.71.8.456a1.748 1.748 0 0 0 .795-1.373c-.004-.509-.363-.709-.803-.456z" class="cls-8" transform="translate(-1490.088 -95.444)"/>
                </g>
                <g id="Group_22838" transform="translate(.209 .266)">
                    <path id="Path_25564" d="M1490.177 96.629a1.29 1.29 0 0 1 .614-1c.329-.179.588-.019.578.357a1.3 1.3 0 0 1-.614 1c-.329.179-.588.019-.578-.357z" class="cls-9" transform="translate(-1490.177 -95.557)"/>
                    <path id="Path_25565" d="M1490.3 96.3a.707.707 0 0 1 .334-.543c.179-.1.32-.012.315.193a.711.711 0 0 1-.334.545c-.182.093-.323.005-.315-.195z" class="cls-9" transform="translate(-1490.014 -95.344)"/>
                    <path id="Path_25566" fill="#c6c6c6" d="M1490.384 96.039a.261.261 0 0 1 .125-.2c.066-.035.118 0 .115.073a.261.261 0 0 1-.122.2c-.069.035-.12.003-.118-.073z" transform="translate(-1489.897 -95.197)" style="mix-blend-mode:screen;isolation:isolate" opacity="0.2"/>
                </g>
            </g>
            <path id="Path_25567" d="M1498.523 93.934l-5.086 2.936c-.315.181-.569.073-.569-.242a1.177 1.177 0 0 1 .569-.9l5.086-2.934c.313-.183.569-.075.569.24a1.183 1.183 0 0 1-.569.9z" class="cls-8" transform="translate(-1337.375 -74.633)"/>
            <path id="Path_25568" d="M1490.711 98.443l-5.086 2.937c-.315.181-.569.073-.569-.24a1.177 1.177 0 0 1 .569-.9l5.086-2.934c.315-.181.569-.075.569.24a1.174 1.174 0 0 1-.569.897z" class="cls-8" transform="translate(-1347.93 -68.539)"/>
        </g>
        <g id="Group_22841" transform="translate(119.198 7.254)">
            <path id="Path_25569" fill="#d4c8ba" d="M1558.232 210.018l-80.8 46.651V138.23l80.8-46.651z" opacity="0.5" transform="translate(-1477.431 -83.414)"/>
            <path id="Path_25570" fill="#131313" d="M1558.233 110.818l-80.8 46.651v-22.712l80.8-46.651z" transform="translate(-1477.43 -88.106)"/>
        </g>
        <g id="Group_22843" transform="translate(140.125 83.966)">
            <g id="Group_22842">
                <path id="Path_25571" d="M1525.817 127.98l-36.058 20.82c-1.857 1.072-3.362.437-3.362-1.42a6.972 6.972 0 0 1 3.362-5.3l36.058-20.819c1.857-1.072 3.362-.437 3.362 1.42a6.972 6.972 0 0 1-3.362 5.299z" class="cls-13" transform="translate(-1486.244 -120.734)"/>
                <path id="Path_25572" d="M1525.817 132.971l-36.058 20.819c-1.857 1.072-3.362.435-3.362-1.422a6.976 6.976 0 0 1 3.362-5.3l36.058-20.816c1.857-1.074 3.362-.437 3.362 1.42a6.972 6.972 0 0 1-3.362 5.299z" class="cls-13" transform="translate(-1486.244 -113.992)"/>
                <g filter="url(#Path_25573)" transform="translate(-158.12 -83.97)">
                    <path id="Path_25573-2" fill="url(#linear-gradient-4)" d="M1499.926 144.388l-10.232 5.906c-1.857 1.072-3.362.437-3.362-1.42a6.972 6.972 0 0 1 3.362-5.3l10.232-5.908c1.857-1.072 3.362-.435 3.362 1.422a6.972 6.972 0 0 1-3.362 5.3z" transform="translate(-1328.21 -14.6)"/>
                </g>
            </g>
        </g>
        <g id="Group_22845" transform="translate(140.278 59.009)">
            <g id="Group_22844">
                <path id="Path_25574" d="M1525.817 117.365l-36.058 20.819c-1.857 1.072-3.362.435-3.362-1.422a6.98 6.98 0 0 1 3.362-5.3l36.058-20.816c1.857-1.072 3.362-.437 3.362 1.42a6.972 6.972 0 0 1-3.362 5.299z" class="cls-13" transform="translate(-1486.397 -110.119)"/>
                <path id="Path_25575" d="M1525.817 122.357l-36.058 20.819c-1.857 1.072-3.362.435-3.362-1.422a6.972 6.972 0 0 1 3.362-5.3l36.058-20.819c1.857-1.072 3.362-.435 3.362 1.422a6.972 6.972 0 0 1-3.362 5.3z" class="cls-13" transform="translate(-1486.397 -103.377)"/>
            </g>
        </g>
        <g id="Group_22847" transform="translate(127.168 20.61)">
            <g id="Group_22846">
                <g filter="url(#Path_25576)" transform="translate(-145.17 -20.61)">
                    <path id="Path_25576-2" d="M1480.821 114.25c0-2.525 1.251-5 2.946-5.925.978-.536 1.763-.414 2.278.3l-.952 1.862a.877.877 0 0 0-1.251-.275 3.657 3.657 0 0 0-1.486 3.183c0 1.415.611 2.02 1.486 1.528a3.224 3.224 0 0 0 1.251-1.665l.952.8a5.514 5.514 0 0 1-2.278 2.833c-1.695.964-2.946-.118-2.946-2.641z" class="cls-15" transform="translate(-1335.65 -53.98)"/>
                </g>
                <g filter="url(#Path_25577)" transform="translate(-145.17 -20.61)">
                    <path id="Path_25577-2" d="M1485.613 113.19l-.807.449v2.17l-1.481.837v-8.191l2.391-1.31c1.415-.773 2.3-.111 2.3 1.742a5.138 5.138 0 0 1-1.011 3.125l1.115 1.926-1.566.884zm.014-4.178l-.821.451v2.391l.821-.456a1.829 1.829 0 0 0 .912-1.693c0-.754-.303-1.029-.913-.693z" class="cls-15" transform="translate(-1332.27 -55.56)"/>
                </g>
                <g filter="url(#Path_25578)" transform="translate(-145.17 -20.61)">
                    <path id="Path_25578-2" d="M1489.746 111.53v1.754l-4.084 2.309V107.5l3.99-2.187v1.754l-2.558 1.411v1.361l2.255-1.251v1.7l-2.255 1.258v1.474z" class="cls-15" transform="translate(-1329.11 -57.61)"/>
                </g>
                <g filter="url(#Path_25579)" transform="translate(-145.17 -20.61)">
                    <path id="Path_25579-2" d="M1491.425 110.623l-2.1 1.183-.393 1.773-1.448.821 2.213-9.233 1.387-.759 2.187 6.722-1.451.821zm-.409-1.427l-.639-2.2-.64 2.908z" class="cls-15" transform="translate(-1326.66 -58.83)"/>
                </g>
                <g filter="url(#Path_25580)" transform="translate(-145.17 -20.61)">
                    <path id="Path_25580-2" d="M1491.314 106.291l-1.507.83v-1.777l4.364-2.389v1.761l-1.479.816v6.108l-1.378.778z" class="cls-15" transform="translate(-1323.51 -60.79)"/>
                </g>
                <g filter="url(#Path_25581)" transform="translate(-145.17 -20.61)">
                    <path id="Path_25581-2" d="M1495.713 107.99v1.7l-3.832 2.165v-7.839l3.743-2.05v1.7l-2.4 1.321v1.313l2.114-1.173v1.646l-2.114 1.18v1.429z" class="cls-15" transform="translate(-1320.71 -62.13)"/>
                </g>
                <g filter="url(#Path_25582)" transform="translate(-145.17 -20.61)">
                    <path id="Path_25582-2" d="M1498.091 106.671l-1.958 1.1-.364 1.7-1.35.762 2.06-8.861 1.291-.708 2.034 6.527-1.349.764zm-.383-1.387l-.593-2.128-.6 2.793z" class="cls-15" transform="translate(-1317.28 -63.88)"/>
                </g>
                <g filter="url(#Path_25583)" transform="translate(-145.17 -20.61)">
                    <path id="Path_25583-2" d="M1496.738 105.021c0-2.323 1.063-4.554 2.5-5.339a1.307 1.307 0 0 1 1.935.367l-.806 1.679a.732.732 0 0 0-1.063-.3 3.309 3.309 0 0 0-1.263 2.873c0 1.3.52 1.886 1.263 1.467a2.754 2.754 0 0 0 1.063-1.484l.806.781a4.679 4.679 0 0 1-1.935 2.52c-1.438.81-2.5-.239-2.5-2.564z" class="cls-15" transform="translate(-1314.15 -65.57)"/>
                </g>
                <g filter="url(#Path_25584)" transform="translate(-145.17 -20.61)">
                    <path id="Path_25584-2" d="M1498.726 103.871c0-2.3 1.039-4.5 2.448-5.271a1.275 1.275 0 0 1 1.893.376l-.79 1.655a.715.715 0 0 0-1.039-.306 3.265 3.265 0 0 0-1.237 2.835c0 1.291.508 1.869 1.237 1.46a2.708 2.708 0 0 0 1.039-1.462l.79.776a4.585 4.585 0 0 1-1.893 2.483c-1.409.795-2.448-.249-2.448-2.546z" class="cls-15" transform="translate(-1311.46 -67.02)"/>
                </g>
                <g filter="url(#Path_25585)" transform="translate(-145.17 -20.61)">
                    <path id="Path_25585-2" d="M1500.672 102.746c0-2.243 1.03-4.451 2.419-5.212s2.393.317 2.393 2.537-1.011 4.415-2.393 5.2-2.419-.282-2.419-2.525zm3.585-1.994c0-1.281-.51-1.839-1.166-1.476a3.257 3.257 0 0 0-1.171 2.777c0 1.288.515 1.841 1.171 1.472a3.263 3.263 0 0 0 1.166-2.772z" class="cls-15" transform="translate(-1308.83 -68.44)"/>
                </g>
                <g filter="url(#Path_25586)" transform="translate(-145.17 -20.61)">
                    <path id="Path_25586-2" d="M1502.975 102.1v-4.087l1.2-.661v4.018c0 1.263.3 1.6.806 1.317s.795-.95.795-2.208v-4l1.171-.642v4.053c0 2.184-.731 3.82-1.977 4.526s-1.995-.107-1.995-2.316z" class="cls-15" transform="translate(-1305.72 -70.41)"/>
                </g>
                <g filter="url(#Path_25587)" transform="translate(-145.17 -20.61)">
                    <path id="Path_25587-2" d="M1508.941 94.733v7.232l-.957.538-1.824-2.847v3.879l-1.152.651v-7.3l.969-.531 1.824 2.864v-3.863z" class="cls-15" transform="translate(-1302.97 -71.9)"/>
                </g>
                <g filter="url(#Path_25588)" transform="translate(-145.17 -20.61)">
                    <path id="Path_25588-2" d="M1508.117 96.7l-1.251.691v-1.62l3.628-1.987v1.606l-1.232.679v5.57l-1.145.647z" class="cls-15" transform="translate(-1300.46 -73.18)"/>
                </g>
            </g>
        </g>
    </g>
</svg>
