<svg xmlns="http://www.w3.org/2000/svg" width="251.807" height="197.049" viewBox="0 0 251.807 197.049">
    <defs>
        <filter id="Path_25797" width="29.794" height="35.301" x="146.265" y="41.176" filterUnits="userSpaceOnUse">
            <feOffset dy="7"/>
            <feGaussianBlur result="blur" stdDeviation="4"/>
            <feFlood flood-color="#c99a65" flood-opacity=".259"/>
            <feComposite in2="blur" operator="in"/>
            <feComposite in="SourceGraphic"/>
        </filter>
        <filter id="Path_25798" width="31.414" height="35.978" x="150.628" y="38.033" filterUnits="userSpaceOnUse">
            <feOffset dy="7"/>
            <feGaussianBlur result="blur-2" stdDeviation="4"/>
            <feFlood flood-color="#c99a65" flood-opacity=".259"/>
            <feComposite in2="blur-2" operator="in"/>
            <feComposite in="SourceGraphic"/>
        </filter>
        <filter id="Path_25799" width="30.828" height="35.799" x="156.211" y="33.867" filterUnits="userSpaceOnUse">
            <feOffset dy="7"/>
            <feGaussianBlur result="blur-3" stdDeviation="4"/>
            <feFlood flood-color="#c99a65" flood-opacity=".259"/>
            <feComposite in2="blur-3" operator="in"/>
            <feComposite in="SourceGraphic"/>
        </filter>
        <filter id="Path_25800" width="30.711" height="36.776" x="164.134" y="29.606" filterUnits="userSpaceOnUse">
            <feOffset dy="7"/>
            <feGaussianBlur result="blur-4" stdDeviation="4"/>
            <feFlood flood-color="#c99a65" flood-opacity=".259"/>
            <feComposite in2="blur-4" operator="in"/>
            <feComposite in="SourceGraphic"/>
        </filter>
        <filter id="Path_25801" width="30.31" height="33.725" x="170.569" y="27.629" filterUnits="userSpaceOnUse">
            <feOffset dy="7"/>
            <feGaussianBlur result="blur-5" stdDeviation="4"/>
            <feFlood flood-color="#c99a65" flood-opacity=".259"/>
            <feComposite in2="blur-5" operator="in"/>
            <feComposite in="SourceGraphic"/>
        </filter>
        <filter id="Path_25802" width="29.431" height="35.87" x="176.583" y="23.479" filterUnits="userSpaceOnUse">
            <feOffset dy="7"/>
            <feGaussianBlur result="blur-6" stdDeviation="4"/>
            <feFlood flood-color="#c99a65" flood-opacity=".259"/>
            <feComposite in2="blur-6" operator="in"/>
            <feComposite in="SourceGraphic"/>
        </filter>
        <filter id="Path_25803" width="28.655" height="35.303" x="181.94" y="21.019" filterUnits="userSpaceOnUse">
            <feOffset dy="7"/>
            <feGaussianBlur result="blur-7" stdDeviation="4"/>
            <feFlood flood-color="#c99a65" flood-opacity=".259"/>
            <feComposite in2="blur-7" operator="in"/>
            <feComposite in="SourceGraphic"/>
        </filter>
        <filter id="Path_25804" width="30.14" height="35.048" x="185.545" y="18.186" filterUnits="userSpaceOnUse">
            <feOffset dy="7"/>
            <feGaussianBlur result="blur-8" stdDeviation="4"/>
            <feFlood flood-color="#c99a65" flood-opacity=".259"/>
            <feComposite in2="blur-8" operator="in"/>
            <feComposite in="SourceGraphic"/>
        </filter>
        <linearGradient id="linear-gradient" x1=".5" x2=".5" y2="1.131" gradientUnits="objectBoundingBox">
            <stop offset="0" stop-color="#d4c8ba" stop-opacity=".502"/>
            <stop offset="1" stop-color="#d4c8ba" stop-opacity=".502"/>
        </linearGradient>
        <linearGradient id="linear-gradient-2" x1=".04" x2=".735" y1=".5" y2=".5" gradientUnits="objectBoundingBox">
            <stop offset="0" stop-color="#878787"/>
            <stop offset="1" stop-color="#3a3f49"/>
        </linearGradient>
        <linearGradient id="linear-gradient-3" x1="-.031" x2="-.084" y1=".335" y2=".378" gradientUnits="objectBoundingBox">
            <stop offset="0" stop-color="#f6f4f7"/>
            <stop offset="1" stop-color="#c0b9c8"/>
        </linearGradient>
        <linearGradient id="linear-gradient-4" x1="-.376" x2="-.271" y1=".255" y2=".38" gradientUnits="objectBoundingBox">
            <stop offset=".502" stop-color="#f8f5f4"/>
            <stop offset="1" stop-color="#e8e5e5"/>
        </linearGradient>
        <linearGradient id="linear-gradient-5" x1=".479" x2="-.038" y1=".59" y2="-.256" gradientUnits="objectBoundingBox">
            <stop offset="0" stop-color="#ce9d63"/>
            <stop offset="1" stop-color="#ad8b70"/>
        </linearGradient>
        <clipPath id="clip-path">
            <path id="Path_25764" d="M1405.484 86.741l31.278-18.058 27.742 60.261-28.404 17.092-9.862-.957-20.75-55.434z" class="cls-1" transform="translate(-1405.484 -68.683)"/>
        </clipPath>
        <clipPath id="clip-path-2">
            <path id="Path_25784" d="M1405.484 78.52l30.682-18.8 42.234 28.93-30.682 18.8-42.23-25.9z" class="cls-1" transform="translate(-1408.484 -62.724)"/>
        </clipPath>
        <style>
            .cls-1{fill:none}.cls-5{fill:#353131}.cls-6{fill:#c5bfcd}.cls-7{fill:#f6f4f7}.cls-9{fill:#191414}.cls-10{fill:#c6c6c6;opacity:.1}.cls-17{isolation:isolate}.cls-14{fill:#d4c8ba;opacity:.8}.cls-15{fill:#291b2a}.cls-24{fill:#060606}.cls-25{fill:#f8f3ed}.cls-26{stroke:transparent;fill:url(#linear-gradient-5)}
        </style>
    </defs>
    <g id="Illustration-PayMoney" transform="translate(18)">
        <g id="_8">
            <g id="Group_22910">
                <g id="Group_22904">
                    <path id="Path_25741" fill="url(#linear-gradient)" d="M1418.116 95.792a5.176 5.176 0 0 0-2.583.692c-.807.467-76.65 44.255-77.269 44.611-.291.169-1.287.567-.891 1.1a4.34 4.34 0 0 0 1.89.511h108.121l36.94-46.914z" transform="translate(-1337.281 36.343)"/>
                    <path id="Path_25742" fill="url(#linear-gradient-2)" d="M1383.262 211.29l-.232-125.446 77.224-44.583c2.582-2.047 5.038-.818 5.041 1.472l.042 121.815c0 .921-2.9 5.643-3.7 6.1l-75.243 43.4c-2.108.592-3.132-1.586-3.132-2.758z" transform="translate(-1275.776 -38.367)"/>
                    <path id="Path_25743" fill="url(#linear-gradient-3)" d="M1465.566 41.027a3.625 3.625 0 0 0-3.655.361l-72.683 42.061a11.286 11.286 0 0 0-5.111 8.871l.134 122.865a3.6 3.6 0 0 0 1.5 3.294l-2.157-1.252a3.6 3.6 0 0 1-1.5-3.294l-.134-122.865a11.287 11.287 0 0 1 5.111-8.871l72.683-42.061a3.625 3.625 0 0 1 3.655-.361z" transform="translate(-1277.214 -39.43)"/>
                    <path id="Path_25744" d="M1460.674 40.67l-72.683 42.061a11.286 11.286 0 0 0-5.111 8.871l.134 122.865c.014 3.259 2.321 4.572 5.157 2.933l72.683-42.061a11.291 11.291 0 0 0 5.111-8.874l-.136-122.865c-.012-3.258-2.321-4.571-5.155-2.93zm-71.8 42.806l72.671-42.051a2.2 2.2 0 0 1 3.31 1.906l.115 120.394a3.327 3.327 0 0 1-1.66 2.879l-77.159 44.651a1.389 1.389 0 0 1-2.084-1.2l-.11-118.04a9.851 9.851 0 0 1 4.915-8.538z" class="cls-5" transform="translate(-1275.977 -38.712)"/>
                </g>
                <g id="Group_22905" transform="translate(104.366 60.278)">
                    <path id="Path_25745" d="M1383.38 70.669l.01 9.349c0 .443-.312.619-.7.4l-.192-.11a1.528 1.528 0 0 1-.694-1.2l-.01-9.347c0-.441.314-.619.7-.4l.192.11a1.525 1.525 0 0 1 .694 1.198z" class="cls-6" transform="translate(-1381.798 -59.595)"/>
                    <path id="Path_25746" d="M1383.376 69.6a1.712 1.712 0 0 1 .27.422 1.342 1.342 0 0 1 .12.52l.01 9.349a.489.489 0 0 1-.2.448l-.5.291a.484.484 0 0 0 .2-.445l-.01-9.349a1.3 1.3 0 0 0-.122-.52 1.616 1.616 0 0 0-.267-.422 1.2 1.2 0 0 0-.3-.256l-.192-.11a.479.479 0 0 0-.492-.047l.5-.293a.5.5 0 0 1 .495.047l.19.11a1.244 1.244 0 0 1 .298.255z" class="cls-7" transform="translate(-1381.681 -59.763)"/>
                    <path id="Path_25747" d="M1383.382 65.6a1.648 1.648 0 0 1 .267.422 1.315 1.315 0 0 1 .122.523v4.431a.488.488 0 0 1-.2.448l-.5.293a.488.488 0 0 0 .2-.448v-4.431a1.309 1.309 0 0 0-.122-.523 1.65 1.65 0 0 0-.267-.422 1.241 1.241 0 0 0-.3-.256l-.192-.11a.491.491 0 0 0-.492-.047l.5-.291a.484.484 0 0 1 .495.047l.19.11a1.185 1.185 0 0 1 .299.254z" class="cls-7" transform="translate(-1381.673 -65.141)"/>
                    <path id="Path_25748" d="M1383.386 66.67v4.431c0 .443-.312.621-.7.4l-.192-.11a1.527 1.527 0 0 1-.694-1.2V65.76c0-.438.314-.619.7-.4l.192.11a1.526 1.526 0 0 1 .694 1.2z" class="cls-6" transform="translate(-1381.79 -64.974)"/>
                </g>
                <path id="Path_25749" d="M1422.432 50.855l-26.368 15.223-1.7-2.906 29.773-17.19z" class="cls-5" transform="translate(-1260.542 -30.62)"/>
                <g id="Group_22906" transform="translate(147.861 148.126)">
                    <path id="Path_25750" fill="#262424" d="M1408.293 103.612v1.582a2.853 2.853 0 0 1-1.385 2.211l-4.888 2.827a1.534 1.534 0 0 1-.757.232.891.891 0 0 1-.889-.985v-1.58a2.862 2.862 0 0 1 1.386-2.211l4.89-2.83a1.547 1.547 0 0 1 .757-.23.889.889 0 0 1 .886.984z" transform="translate(-1400.324 -102.59)"/>
                    <path id="Path_25751" d="M1407.928 103.37v1.594a2.885 2.885 0 0 1-1.4 2.227l-4.926 2.851a1.582 1.582 0 0 1-.764.232.937.937 0 0 1-.249-.049 1.056 1.056 0 0 1-.241-.708v-1.594a2.872 2.872 0 0 1 1.4-2.227l4.926-2.851a1.55 1.55 0 0 1 .762-.232.951.951 0 0 1 .251.047 1.057 1.057 0 0 1 .241.71z" class="cls-5" transform="translate(-1400.351 -102.613)"/>
                </g>
                <g id="Group_22909" transform="translate(148.532 24.435)">
                    <g id="Group_22907">
                        <path id="Path_25752" d="M1401.429 49.961a1.75 1.75 0 0 0-.792 1.369c0 .5.359.708.8.455a1.742 1.742 0 0 0 .79-1.369c-.003-.504-.359-.708-.798-.455z" class="cls-9" transform="translate(-1400.637 -49.853)"/>
                    </g>
                    <g id="Group_22908" transform="translate(.211 .266)">
                        <path id="Path_25753" d="M1400.727 51.035a1.283 1.283 0 0 1 .61-1c.328-.178.586-.019.577.356a1.3 1.3 0 0 1-.612 1c-.326.179-.587.019-.575-.356z" class="cls-10" transform="translate(-1400.727 -49.966)"/>
                        <path id="Path_25754" d="M1400.847 50.7a.7.7 0 0 1 .331-.542c.178-.1.319-.012.314.192a.7.7 0 0 1-.333.544c-.178.101-.319.014-.312-.194z" class="cls-10" transform="translate(-1400.565 -49.755)"/>
                        <path id="Path_25755" fill="#c6c6c6" d="M1400.933 50.448a.268.268 0 0 1 .124-.2c.066-.035.117 0 .115.073a.262.262 0 0 1-.122.2.073.073 0 0 1-.117-.073z" transform="translate(-1400.45 -49.608)" style="isolation:isolate;mix-blend-mode:screen" opacity="0.2"/>
                    </g>
                </g>
                <path id="Path_25756" d="M1409.056 48.339l-5.071 2.928c-.314.181-.568.073-.568-.241a1.173 1.173 0 0 1 .568-.893l5.071-2.926c.314-.183.567-.075.567.239a1.173 1.173 0 0 1-.567.893z" class="cls-9" transform="translate(-1248.366 -29.094)"/>
                <path id="Path_25757" d="M1401.244 52.849l-5.071 2.928c-.312.181-.568.073-.568-.239a1.18 1.18 0 0 1 .568-.9l5.071-2.926c.314-.181.567-.075.567.239a1.17 1.17 0 0 1-.567.898z" class="cls-9" transform="translate(-1258.869 -23.03)"/>
            </g>
            <g id="Group_22911" transform="translate(119.369 6.555)">
                <path id="Path_25758" fill="#d4c8ba" d="M1468.769 163.8l-80.569 46.52V92.217l80.57-46.517z" opacity="0.5" transform="translate(-1388.198 -37.557)"/>
                <path id="Path_25759" fill="#131313" d="M1468.77 64.873l-80.57 46.519V88.744l80.572-46.519z" transform="translate(-1388.197 -42.226)"/>
            </g>
            <g id="Group_22924" transform="translate(126.148 45.316)">
                <g id="Group_22916" transform="translate(32.064 21.002)">
                    <g id="Axonometric_Cube">
                        <path id="Cube_face_-_right" d="M1438.279 74.511l-33.513 19.349v-6.793l33.513-19.349z" class="cls-14" transform="translate(-1404.766 -67.718)"/>
                        <path id="Path_25760" d="M1405.484 86.366l30.145-17.4v2.9l-30.145 17.4z" class="cls-15" transform="translate(-1403.8 -66.045)"/>
                    </g>
                    <g id="Group_22915" transform="translate(1.684 2.263)">
                        <g id="Group_22914" clip-path="url(#clip-path)">
                            <g id="Group_22913" transform="translate(1.57 1.067)">
                                <g id="Group_22912" class="cls-17">
                                    <path id="Path_25761" fill="url(#linear-gradient-4)" d="M1453.135 129.921l-1.463-.844a10.626 10.626 0 0 1-2.6-2.194 14.446 14.446 0 0 1-2.323-3.657 11.213 11.213 0 0 1-1.036-4.48l.07-32.428a11.7 11.7 0 0 0-1.076-4.661 15 15 0 0 0-2.41-3.793 11.04 11.04 0 0 0-2.712-2.283l-11.159-6.442-22.267 12.939 11.162 6.445a11.028 11.028 0 0 1 2.71 2.281 15.008 15.008 0 0 1 2.412 3.793 11.705 11.705 0 0 1 1.076 4.661l-.073 32.428a11.27 11.27 0 0 0 1.036 4.48 14.455 14.455 0 0 0 2.326 3.657 10.6 10.6 0 0 0 2.6 2.194l1.463.844c1.657.956 3.165 1.043 4.255.41l22.265-12.939c-1.091.632-2.598.546-4.256-.411z" transform="translate(-1406.154 -69.138)"/>
                                    <path id="Path_25762" fill="#f3f0f0" d="M1430.869 135.44l-1.463-.844a13.19 13.19 0 0 1-5.964-10.332l.073-32.428a13.682 13.682 0 0 0-6.2-10.735l-11.162-6.445v.27l11.159 6.445a13.152 13.152 0 0 1 5.968 10.329l-.073 32.428a13.682 13.682 0 0 0 6.2 10.737l1.463.844" transform="translate(-1406.154 -61.718)"/>
                                </g>
                                <path id="Path_25763" d="M1421.982 84.29l1.74-1.006v.416l-1.74 1.006zm-2.236 4.588l-2.713 1.566v.415l3.212-1.859 1.111-.642v-.415l-1.611.931zm2.4-2.621v-.415l-1.36.785-.9.516v.415l.9-.516zm-2.893 1.254l-2.23 1.287v.415l2.23-1.287zm1.151-1.9l.938-.542v-.415l-1.613.931-2.691 1.554v.415l3.366-1.944zm-2.64-.124l2.194-1.268v-.415l-2.194 1.268-.71.408v.42l.71-.41zm4.382-2.53l.7-.408v-.415l-.931.537-1.322.764v.415l1.55-.893zm1.587 3.613L1422 87.58v.415l1.74-1.006zm-3.4 7.919l-3.3 1.906v.417l3.3-1.908zm-3.275 3.54v.415l.664-.382 2.773-1.6v-.415l-2.358 1.362zm6.672-8.8l-2.391 1.381-1.6.924v.415l1.6-.924 2.391-1.381zm-.342 5.144l-.6.347-1.655.954v.415l1.322-.762.933-.539zm-4.382-.767l-1.974 1.139v.415l1.974-1.139 2.194-1.268v-.415l-2.194 1.268zm2.832-1.636v.415l1.158-.668v-.415zm-.867 2.565l2.087-1.205v-.41l-2.087 1.205zm-3.943-1.02l2.075-1.2V91.9l-2.075 1.2zm6.044 5.16l-2.086 1.2v.415l2.086-1.2zm-.4 3.941l1.158-.67v-.415l-1.158.668zm-3.069 1.77l2.335-1.348v-.415l-2.335 1.348zm3.728-4.215l-2.061 1.189v.415l2.061-1.189zm-6.276.743l.87-.5 2.567-1.482v-.415l-2.358 1.36-1.079.624zm3.577.814l-2.647 1.529-.942.544v.415l1.266-.729 2.323-1.341zm-3.584.837l1.547-.893 1.749-1.01v-.415l-2.523 1.458-.773.445zm-.01 3.3l1.941-1.121v-.415l-1.941 1.121zm6.346-9.026l-.764.441-.169.1-1.322.764v.415l1.322-.764.169-.1.764-.441zm-1.472 7.987l-1.322.764v.415l1.55-.9.7-.406v-.399l-.931.537zm-1.96 1.132l-2.194 1.266-.71.41v.415l.71-.41 2.194-1.266zm-.868 2.147l-2.053 1.186v.415l2.053-1.184zm2.888-1.667l-2.25 1.3v.417l2.417-1.395 1.573-.91v-.415l-1.74 1zm-2.236 5l2.086-1.2v-.415l-2.086 1.2zm-2.713 1.566l2.075-1.2v-.404l-2.075 1.2zm4.182-4.478l-1.322.764v.415l1.322-.764.933-.537V108l-.933.537zm-4.189 2.834l2.23-1.287v-.415l-2.23 1.287zM1428.9 83.6l-1.625.935v.417l1.625-.938zm-.023-4.933l-.975.563v.415l.975-.563zm-1.615.931l-.839.485v.415l.839-.485zm1.632.708l-1.6.926v.415l1.6-.926zm-2.4 3.036l-.685.4v.415l.685-.4zm.638.047l1.779-1.027v-.415l-1.779 1.027zm1.742 7.833l-1.51.872v.415l1.51-.87zm.028-1.662l-2.862 1.64v.415l2.853-1.646zm-2.176 2.9l-.839.485v.415l.839-.485zm-.068-2.841l2.241-1.294v-.415l-2.249 1.29zm.621-2.007l1.625-.938v-.415l-1.625.935zm-1.393 8.219l.839-.485v-.415l-.839.483zm1.477-.853l1.51-.872v-.415l-1.51.87zm-.173 3.4l1.7-.98v-.415l-1.7.98zm-.286-1.484l1.976-1.142v-.415l-1.976 1.142zm-.638-.047l-.8.462v.415l.8-.462zm2.624 1.782l-2.347 1.355v.415l2.347-1.355zm-2.337-.3l-.806.464v.415l.806-.464zm.579 7.216l1.779-1.027v-.418l-1.779 1.027zm-1.322.764l.685-.394v-.415l-.685.4zm.616-3.653l.839-.485v-.415l-.839.485zm2.471-.192l-1.6.924v.415l1.6-.924zm-.017-1.226v-.415l-.975.565v.415zm-1.6 5.87l1.625-.938v-.415l-1.625.938zm4.142-24.965l-.694.4v.417l.694-.4zm-.023-4.933l-.975.565v.415l.975-.563zm.016 1.641l-.673.389v.415l.673-.389zm-.834 2.131v.418l.848-.492v-.415zm.813 8.784l-.581.335v.415l.581-.335zm.026-1.665l-.87.5v.415l.87-.5zm-.385-1.01l.385-.22v-.417l-.385.223zm-.307-1.47l.694-.4V84.8l-.694.4zm.084 7.364l.581-.335v-.415l-.581.335zm-.174 3.4l.767-.443v-.415l-.767.443zm-.286-1.484l1.048-.6v-.415l-1.048.6zm1.057 2.272l-.49.281v.415l.49-.281zm-.83 6.381l.848-.49v-.415l-.848.49zm.834-2.546l-.673.389v.415l.673-.389zm-.016-1.224v-.415l-.975.563v.415zm-.67 5.333l.694-.4v-.417l-.694.4zm-16.1-12.864l.722-.417v-.416l-.722.417zm-.023-4.933l.443-.256v-.415l-.443.256zm.017 1.639l.743-.429v-.415l-.743.429zm.014 1.226v.415l.567-.328v-.415zm-.035 9.692l.837-.483v-.417l-.837.483zm.026-1.665l.549-.316v-.416l-.549.316zm1.034-2.661l-1.034.6v.415l1.034-.6zm-.31-1.47l-.722.417v.415l.722-.417zm.087 7.366l-.837.483v.415l.837-.483zm-.176 3.4l-.649.375v.417l.649-.377zm-.286-1.484l-.368.213v.415l.368-.213zm-.359 3.922l.926-.537v-.415l-.926.535zm.586 4.733l-.567.326v.417l.567-.328zm-.581-.9l.743-.429v-.415l-.743.429zm.427-1.894v-.415l-.443.253v.417zm.3 4.354l-.722.417v.415l.722-.415z" transform="translate(-1394.809 -58.289)" style="mix-blend-mode:multiply;isolation:isolate" fill="#cfcad4"/>
                            </g>
                        </g>
                    </g>
                </g>
                <g id="Group_22922" transform="translate(32.064)">
                    <g id="Axonometric_Cube-2">
                        <path id="Cube_face_-_right-2" d="M1438.279 65.552L1404.766 84.9v-6.792l33.513-19.349z" class="cls-14" transform="translate(-1404.766 -58.759)"/>
                        <path id="Path_25765" d="M1405.484 77.408L1435.629 60v2.9l-30.145 17.4z" class="cls-15" transform="translate(-1403.8 -57.087)"/>
                    </g>
                    <g id="Group_22921" transform="translate(1.684 2.263)">
                        <g id="Group_22920" clip-path="url(#clip-path-2)" transform="translate(4 3)">
                            <g id="Group_22919" transform="translate(-1.919 .48)">
                                <g id="Group_22917">
                                    <path id="Path_25766" fill="#e0dbe1" d="M1404.726 75.552a1.579 1.579 0 0 0 .928 1.231l39.433 22.817a4.256 4.256 0 0 0 3.833.162l23.62-13.6a1.1 1.1 0 0 0 .656-1.057c-.026-.22-.03-.415-.061-.678a1.65 1.65 0 0 0-.921-1.135l-39.433-22.813a4.256 4.256 0 0 0-3.833-.162l-23.62 13.6a1.159 1.159 0 0 0-.659.9c-.018.266.055.505.057.735z" transform="translate(-1404.664 -59.929)"/>
                                    <path id="Path_25767" fill="#d6a15f" d="M1432.783 60.473l39.433 22.813c1.132.656 1.254 1.648.272 2.213l-23.62 13.6a4.261 4.261 0 0 1-3.835-.162L1405.6 76.126c-1.134-.654-1.254-1.646-.272-2.213l23.62-13.6a4.256 4.256 0 0 1 3.835.16z" transform="translate(-1404.665 -59.929)"/>
                                </g>
                                <g id="Group_22918" transform="translate(4.985 12.196)">
                                    <path id="Path_25768" d="M1424.831 74.312a1.1 1.1 0 0 0-.561.15l-1.313.76c-.178.1-.265.209-.265.324s.089.223.26.321l.38.218a1.105 1.105 0 0 0 1.116 0l1.315-.757q.26-.151.26-.324c0-.115-.087-.223-.258-.321l-.377-.22a1.11 1.11 0 0 0-.557-.151zm-.3.314a.609.609 0 0 1 .647-.007l.309.18c.211.12.2.244-.014.37l-1.292.746a.6.6 0 0 1-.645.009l-.309-.178c-.213-.124-.208-.249.012-.375z" class="cls-24" transform="translate(-1385.415 -52.788)"/>
                                    <path id="Path_25769" d="M1424.008 73.836a1.108 1.108 0 0 0-.563.152l-1.313.757c-.176.1-.265.211-.263.326s.087.22.258.319l.38.22a1.12 1.12 0 0 0 1.116 0l1.315-.76q.26-.151.26-.324c0-.115-.084-.223-.258-.321l-.377-.218a1.1 1.1 0 0 0-.555-.151zm-.3.316a.608.608 0 0 1 .647-.007l.312.178c.208.122.2.246-.016.373l-1.292.746a.606.606 0 0 1-.643.009l-.312-.181c-.211-.122-.209-.246.012-.373z" class="cls-24" transform="translate(-1386.521 -53.428)"/>
                                    <path id="Path_25770" d="M1423.184 73.361a1.1 1.1 0 0 0-.56.15l-1.315.76c-.176.1-.262.209-.262.324s.089.223.26.321l.377.218a1.11 1.11 0 0 0 1.118 0l1.313-.757c.176-.1.263-.209.263-.324s-.087-.223-.258-.321l-.38-.22a1.1 1.1 0 0 0-.556-.151zm-.3.314a.608.608 0 0 1 .647-.007l.312.181c.208.12.2.244-.016.37l-1.29.746a.6.6 0 0 1-.645.009l-.309-.178c-.214-.124-.209-.249.009-.375z" class="cls-24" transform="translate(-1387.629 -54.067)"/>
                                    <path id="Path_25771" d="M1422.36 72.885a1.1 1.1 0 0 0-.56.152l-1.313.757c-.178.1-.265.211-.265.326s.089.22.26.319l.38.22a1.12 1.12 0 0 0 1.116 0l1.315-.76q.26-.151.26-.324c0-.115-.087-.223-.258-.321l-.377-.218a1.089 1.089 0 0 0-.558-.151zm-.3.316a.6.6 0 0 1 .647-.007l.31.178c.211.122.2.246-.014.373l-1.292.746a.6.6 0 0 1-.645.007l-.31-.178c-.213-.122-.208-.246.012-.373z" class="cls-24" transform="translate(-1388.736 -54.707)"/>
                                    <path id="Path_25772" d="M1420.354 71.727a1.12 1.12 0 0 0-.56.15l-1.313.76c-.178.1-.265.211-.265.326s.089.22.26.319l.38.218a1.1 1.1 0 0 0 1.116 0l1.315-.757q.26-.151.26-.324c0-.115-.087-.223-.258-.321l-.377-.218a1.089 1.089 0 0 0-.558-.153zm-.3.314a.6.6 0 0 1 .647 0l.31.178c.211.122.2.246-.014.373l-1.292.746a.6.6 0 0 1-.645.007l-.31-.178c-.213-.122-.209-.248.012-.375z" class="cls-24" transform="translate(-1391.434 -56.263)"/>
                                    <path id="Path_25773" d="M1419.531 71.252a1.1 1.1 0 0 0-.56.15l-1.315.757c-.176.1-.265.211-.263.326s.087.22.26.321l.377.218a1.109 1.109 0 0 0 1.118 0l1.313-.76q.26-.151.26-.324c0-.115-.084-.22-.256-.321l-.38-.218a1.094 1.094 0 0 0-.554-.149zm-.3.314a.608.608 0 0 1 .647-.007l.312.181c.208.12.2.244-.017.37l-1.292.746a.6.6 0 0 1-.642.009l-.312-.181c-.211-.122-.206-.246.012-.373z" class="cls-24" transform="translate(-1392.54 -56.902)"/>
                                    <path id="Path_25774" d="M1418.707 70.776a1.1 1.1 0 0 0-.56.15l-1.315.76c-.176.1-.263.211-.263.324s.089.223.26.321l.377.218a1.081 1.081 0 0 0 .556.15 1.1 1.1 0 0 0 .563-.152l1.313-.757c.176-.1.262-.209.262-.324s-.087-.223-.258-.321l-.38-.22a1.1 1.1 0 0 0-.555-.149zm-.3.314a.609.609 0 0 1 .647-.007l.312.181c.209.122.2.244-.014.37l-1.292.748a.6.6 0 0 1-.644.007l-.31-.178c-.213-.122-.208-.249.01-.375z" class="cls-24" transform="translate(-1393.648 -57.542)"/>
                                    <path id="Path_25775" d="M1417.883 70.3a1.1 1.1 0 0 0-.56.152l-1.313.757c-.178.1-.265.211-.265.326s.089.22.26.319l.38.22a1.105 1.105 0 0 0 1.116 0l1.315-.76q.26-.151.26-.324c0-.115-.087-.223-.258-.321l-.377-.218a1.113 1.113 0 0 0-.558-.151zm-.3.316a.609.609 0 0 1 .647-.007l.309.178c.211.122.2.246-.014.373l-1.292.746a.609.609 0 0 1-.645.009l-.309-.18q-.32-.183.012-.373z" class="cls-24" transform="translate(-1394.755 -58.182)"/>
                                    <path id="Path_25776" d="M1415.876 69.142a1.106 1.106 0 0 0-.56.152l-1.313.757c-.178.1-.265.211-.263.326s.087.22.258.319l.38.22a1.121 1.121 0 0 0 1.116 0l1.315-.76q.261-.151.26-.324c0-.115-.084-.223-.258-.321l-.377-.218a1.107 1.107 0 0 0-.558-.151zm-.3.316a.608.608 0 0 1 .647-.007l.309.178q.316.183-.014.373l-1.292.746a.605.605 0 0 1-.642.009l-.312-.181c-.211-.122-.208-.246.012-.373z" class="cls-24" transform="translate(-1397.451 -59.739)"/>
                                    <path id="Path_25777" d="M1415.054 68.667a1.1 1.1 0 0 0-.56.15l-1.315.76c-.176.1-.265.209-.262.324s.087.223.26.321l.377.218a1.11 1.11 0 0 0 1.118 0l1.313-.757c.173-.1.26-.209.26-.326s-.084-.22-.255-.321l-.38-.218a1.1 1.1 0 0 0-.556-.151zm-.3.314a.608.608 0 0 1 .647-.007l.312.181c.209.12.2.244-.016.37l-1.292.746a.6.6 0 0 1-.643.009l-.312-.178c-.211-.124-.206-.249.012-.375z" class="cls-24" transform="translate(-1398.559 -60.377)"/>
                                    <path id="Path_25778" d="M1414.23 68.191a1.121 1.121 0 0 0-.56.15l-1.315.76c-.176.1-.262.211-.262.326s.089.22.26.319l.377.218a1.116 1.116 0 0 0 1.118 0l1.313-.76c.176-.1.262-.209.262-.324s-.087-.223-.258-.321l-.38-.218a1.075 1.075 0 0 0-.555-.15zm-.3.314a.608.608 0 0 1 .649 0l.31.178q.313.183-.014.373l-1.292.746a.6.6 0 0 1-.645.007l-.309-.178c-.213-.122-.209-.246.012-.375z" class="cls-24" transform="translate(-1399.667 -61.017)"/>
                                    <path id="Path_25779" d="M1413.4 67.716a1.1 1.1 0 0 0-.56.15l-1.313.757c-.178.1-.265.211-.262.326s.087.22.258.321l.38.218a1.1 1.1 0 0 0 1.116 0l1.315-.76q.26-.151.26-.324c0-.115-.087-.22-.258-.321l-.377-.218a1.11 1.11 0 0 0-.559-.149zm-.3.314a.608.608 0 0 1 .647-.007l.31.181c.211.12.2.244-.014.37l-1.292.746a.609.609 0 0 1-.645.009l-.31-.181c-.211-.122-.209-.246.012-.373z" class="cls-24" transform="translate(-1400.773 -61.656)"/>
                                    <path id="Path_25780" d="M1411.4 66.558a1.1 1.1 0 0 0-.56.15l-1.313.757c-.178.1-.265.211-.263.326s.087.22.258.321l.38.218a1.1 1.1 0 0 0 1.116 0l1.315-.76q.26-.151.26-.324c0-.115-.084-.22-.258-.321l-.377-.218a1.1 1.1 0 0 0-.558-.149zm-.3.314a.609.609 0 0 1 .647-.007l.309.178q.317.183-.014.373l-1.292.745a.6.6 0 0 1-.642.009l-.312-.181c-.211-.122-.209-.246.012-.373z" class="cls-24" transform="translate(-1403.47 -63.213)"/>
                                    <path id="Path_25781" d="M1410.577 66.082a1.1 1.1 0 0 0-.56.15l-1.315.76c-.176.1-.265.211-.263.324s.087.223.26.321l.377.218a1.074 1.074 0 0 0 .555.15 1.1 1.1 0 0 0 .563-.152l1.313-.757q.26-.151.26-.324c0-.115-.084-.223-.256-.321l-.38-.22a1.1 1.1 0 0 0-.554-.149zm-.3.314a.608.608 0 0 1 .647-.007l.312.181c.208.122.2.244-.016.37l-1.292.746a.6.6 0 0 1-.642.009l-.312-.178c-.211-.124-.207-.249.012-.375z" class="cls-24" transform="translate(-1404.578 -63.852)"/>
                                    <path id="Path_25782" d="M1409.753 65.606a1.1 1.1 0 0 0-.56.152l-1.313.757c-.178.1-.265.211-.265.326s.089.22.26.319l.377.22a1.137 1.137 0 0 0 .556.15 1.121 1.121 0 0 0 .563-.152l1.313-.76c.176-.1.263-.209.263-.324s-.087-.223-.258-.321l-.38-.218a1.1 1.1 0 0 0-.556-.149zm-.3.316a.612.612 0 0 1 .649-.007l.309.178q.313.183-.014.373l-1.292.746a.609.609 0 0 1-.645.009l-.309-.18c-.213-.122-.209-.246.012-.373z" class="cls-24" transform="translate(-1405.686 -64.492)"/>
                                    <path id="Path_25783" d="M1408.367 65.281l-1.313.76c-.178.1-.265.209-.263.324s.087.223.258.321l.38.218a1.106 1.106 0 0 0 1.116 0l1.315-.757q.261-.151.26-.324c0-.115-.084-.223-.258-.321l-.378-.22a1.124 1.124 0 0 0-1.118 0zm.263.164a.608.608 0 0 1 .647-.007l.309.18c.211.12.206.244-.014.37l-1.292.746a.6.6 0 0 1-.642.009l-.312-.178c-.211-.124-.208-.249.012-.375z" class="cls-24" transform="translate(-1406.792 -65.131)"/>
                                </g>
                            </g>
                        </g>
                    </g>
                </g>
                <g id="Group_22923" transform="translate(0 22.709)">
                    <path id="Path_25785" d="M1397.513 79.266l-5.111 2.952c-.727.42-1.313.171-1.313-.553v-3.248a2.72 2.72 0 0 1 1.313-2.072l5.111-2.952c.727-.417 1.313-.169 1.313.556V77.2a2.716 2.716 0 0 1-1.313 2.066z" class="cls-25" transform="translate(-1391.089 -62.066)"/>
                    <path id="Path_25786" d="M1401.624 76.895l-5.113 2.952c-.725.417-1.313.169-1.313-.556v-3.247a2.722 2.722 0 0 1 1.313-2.07l5.113-2.952c.725-.42 1.313-.171 1.313.553v3.249a2.726 2.726 0 0 1-1.313 2.071z" class="cls-25" transform="translate(-1385.565 -65.256)"/>
                    <path id="Path_25787" d="M1405.733 74.521l-5.113 2.952c-.724.42-1.313.171-1.313-.553v-3.248a2.726 2.726 0 0 1 1.313-2.072l5.113-2.952c.725-.417 1.313-.169 1.313.556v3.247a2.722 2.722 0 0 1-1.313 2.07z" class="cls-25" transform="translate(-1380.041 -68.446)"/>
                    <path id="Path_25788" d="M1397.513 82.41l-5.111 2.952c-.727.417-1.313.169-1.313-.556v-3.247a2.716 2.716 0 0 1 1.313-2.07l5.111-2.952c.727-.42 1.313-.171 1.313.553v3.247a2.72 2.72 0 0 1-1.313 2.073z" class="cls-25" transform="translate(-1391.089 -57.842)"/>
                    <path id="Path_25789" d="M1401.624 80.036l-5.113 2.952c-.725.42-1.313.171-1.313-.553v-3.25a2.726 2.726 0 0 1 1.313-2.07l5.113-2.952c.725-.417 1.313-.169 1.313.556v3.247a2.722 2.722 0 0 1-1.313 2.07z" class="cls-25" transform="translate(-1385.565 -61.031)"/>
                    <path id="Path_25790" d="M1405.733 77.665l-5.113 2.952c-.724.417-1.313.169-1.313-.556v-3.247a2.722 2.722 0 0 1 1.313-2.07l5.113-2.952c.725-.42 1.313-.171 1.313.553v3.247a2.726 2.726 0 0 1-1.313 2.073z" class="cls-25" transform="translate(-1380.041 -64.221)"/>
                    <path id="Path_25791" d="M1397.513 85.551L1392.4 88.5c-.727.42-1.313.171-1.313-.553V84.7a2.72 2.72 0 0 1 1.313-2.07l5.111-2.952c.727-.417 1.313-.171 1.313.556v3.247a2.716 2.716 0 0 1-1.311 2.07z" class="cls-25" transform="translate(-1391.089 -53.617)"/>
                    <path id="Path_25792" d="M1401.624 83.18l-5.113 2.952c-.725.417-1.313.169-1.313-.556v-3.247a2.722 2.722 0 0 1 1.313-2.07l5.113-2.952c.725-.42 1.313-.171 1.313.553v3.247a2.726 2.726 0 0 1-1.313 2.073z" class="cls-25" transform="translate(-1385.565 -56.807)"/>
                    <path id="Path_25793" d="M1405.733 80.806l-5.113 2.952c-.724.42-1.313.171-1.313-.553v-3.25a2.726 2.726 0 0 1 1.313-2.07l5.113-2.952c.725-.417 1.313-.169 1.313.556v3.247a2.722 2.722 0 0 1-1.313 2.07z" class="cls-25" transform="translate(-1380.041 -59.996)"/>
                    <path id="Path_25794" d="M1397.513 88.695l-5.111 2.952c-.727.417-1.313.169-1.313-.556v-3.247a2.716 2.716 0 0 1 1.313-2.07l5.111-2.952c.727-.42 1.313-.171 1.313.553v3.247a2.72 2.72 0 0 1-1.313 2.073z" class="cls-26" transform="translate(-1391.089 -49.392)"/>
                    <path id="Path_25795" d="M1401.624 86.322l-5.113 2.952c-.725.42-1.313.171-1.313-.556v-3.247a2.726 2.726 0 0 1 1.313-2.07l5.113-2.952c.725-.42 1.313-.171 1.313.556v3.247a2.726 2.726 0 0 1-1.313 2.07z" class="cls-25" transform="translate(-1385.565 -52.583)"/>
                    <path id="Path_25796" d="M1405.733 83.95l-5.113 2.95c-.724.417-1.313.169-1.313-.556V83.1a2.722 2.722 0 0 1 1.313-2.07l5.113-2.952c.725-.42 1.313-.171 1.313.553v3.247a2.726 2.726 0 0 1-1.313 2.072z" class="cls-26" transform="translate(-1380.041 -55.772)"/>
                </g>
            </g>
            <g id="Group_22926" transform="translate(140.765 24.207)">
                <g id="Group_22925">
                    <g filter="url(#Path_25797)" transform="translate(-158.76 -24.21)">
                        <path id="Path_25797-2" d="M1402.118 61.413a4.9 4.9 0 0 1-2.351 4.335l-.928.52v2.154l-1.514.856V61.01l2.443-1.339c1.445-.792 2.35-.128 2.35 1.742zm-1.51.837c0-.764-.309-1.039-.933-.694l-.837.462v2.415l.837-.467a1.856 1.856 0 0 0 .933-1.716z" class="cls-26" transform="translate(-1238.56 -12.66)"/>
                    </g>
                    <g filter="url(#Path_25798)" transform="translate(-158.76 -24.21)">
                        <path id="Path_25798-2" d="M1403.422 64.437l-2.2 1.236-.41 1.817-1.517.856 2.314-9.457 1.449-.792 2.286 6.834-1.517.856zm-.429-1.454l-.668-2.23-.668 2.975z" class="cls-26" transform="translate(-1235.91 -14.34)"/>
                    </g>
                    <g filter="url(#Path_25799)" transform="translate(-158.76 -24.21)">
                        <path id="Path_25799-2" d="M1405.025 62.663v2.881l-1.439.813v-2.923l-1.953-4.065 1.531-.839 1.21 2.532 1.2-3.852 1.383-.76z" class="cls-26" transform="translate(-1232.77 -16.55)"/>
                    </g>
                    <g filter="url(#Path_25800)" transform="translate(-158.76 -24.21)">
                        <path id="Path_25800-2" d="M1409.393 63.114l-.014-4.168-1.259 4.11-.617.347-1.261-2.6V64.9l-1.3.731V57.67l1.156-.633 1.732 3.615 1.676-5.484 1.132-.619.014 7.851z" class="cls-26" transform="translate(-1228.31 -19.1)"/>
                    </g>
                    <g filter="url(#Path_25801)" transform="translate(-158.76 -24.21)">
                        <path id="Path_25801-2" d="M1407.691 59.387c0-2.354 1.137-4.7 2.67-5.54s2.64.26 2.64 2.586-1.116 4.663-2.64 5.523-2.67-.215-2.67-2.569zm3.957-2.2c0-1.343-.565-1.911-1.287-1.512a3.445 3.445 0 0 0-1.294 2.947c0 1.353.57 1.915 1.294 1.51a3.458 3.458 0 0 0 1.287-2.946z" class="cls-26" transform="translate(-1224.62 -20.42)"/>
                    </g>
                    <g filter="url(#Path_25802)" transform="translate(-158.76 -24.21)">
                        <path id="Path_25802-2" d="M1414.687 51.938V59.6l-1.076.607-2.056-2.949v4.112l-1.3.734v-7.74l1.093-.6 2.058 2.97v-4.1z" class="cls-26" transform="translate(-1221.17 -22.61)"/>
                    </g>
                    <g filter="url(#Path_25803)" transform="translate(-158.76 -24.21)">
                        <path id="Path_25803-2" d="M1416.2 56.768v1.657l-3.655 2.065v-7.644l3.573-1.958v1.657l-2.29 1.264v1.285l2.018-1.118v1.6l-2.018 1.128V58.1z" class="cls-26" transform="translate(-1218.1 -24.03)"/>
                    </g>
                    <g filter="url(#Path_25804)" transform="translate(-158.76 -24.21)">
                        <path id="Path_25804-2" d="M1417.117 55.513v2.7l-1.264.713v-2.738l-1.714-3.873 1.343-.736 1.062 2.412 1.055-3.571 1.215-.666z" class="cls-26" transform="translate(-1215.95 -25.55)"/>
                    </g>
                </g>
            </g>
        </g>
        <g id="Group_22929" transform="translate(121.851 111.774)">
            <g id="Group_22927" opacity="0.4">
                <path id="Path_25805" fill="#d4c8ba" d="M1418.509 90.516c0-3.041-2.129-4.271-4.752-2.769l-16.771 9.621a10.436 10.436 0 0 0-4.743 8.212v6.794c0 3.038 2.119 4.279 4.743 2.773l16.771-9.621a10.455 10.455 0 0 0 4.752-8.219z" transform="translate(-1392.242 -87.107)"/>
            </g>
            <g id="Group_22928" class="cls-17" transform="translate(8.14 4.685)">
                <path id="Path_25806" fill="#cfe9ff" d="M1421.566 90.005l-23.46 28.053-.987-.584a3.364 3.364 0 0 1-1.4-3.1v-6.792a10.437 10.437 0 0 1 4.743-8.215l16.77-9.619a3.346 3.346 0 0 1 3.35-.328z" opacity="0.7" transform="translate(-1395.714 -89.105)"/>
                <path id="Path_25807" d="M1417.649 90l-16.772 9.619a10.44 10.44 0 0 0-4.743 8.215v6.792c0 3.041 2.119 4.279 4.743 2.773l16.772-9.619a10.461 10.461 0 0 0 4.754-8.219v-6.799c-.003-3.038-2.13-4.271-4.754-2.762z" class="cls-26" transform="translate(-1395.148 -88.77)"/>
            </g>
            <path id="Path_25808" fill="#fff" d="M1399.119 110.6l-1.151.663c-.19.11-.286.075-.286-.105v-8.2a.5.5 0 0 1 .286-.448l1.151-.663c.187-.11.283-.07.283.12v.448a3.2 3.2 0 0 1 .584-.886 3.487 3.487 0 0 1 .8-.645l.556-.321q1.04-.6 1.578-.342t.535 1.332v2.492a3.667 3.667 0 0 1-.535 1.948 4.369 4.369 0 0 1-1.578 1.482l-.556.319a2 2 0 0 1-.8.279.487.487 0 0 1-.53-.244c-.054.033-.054 2.335-.054 2.335a.5.5 0 0 1-.283.436zm1.219-4.037l.6-.345a1.739 1.739 0 0 0 .617-.539 1.325 1.325 0 0 0 .183-.722v-2.33c0-.288-.061-.46-.183-.511s-.328.007-.617.173l-.6.345a1.714 1.714 0 0 0-.935 1.568v1.871c-.003.687.311.849.935.49zm6.9-2.492l-.326.19a2.031 2.031 0 0 1-1.653.384c-.387-.155-.582-.591-.582-1.3v-2.495a3.586 3.586 0 0 1 .582-1.976 4.757 4.757 0 0 1 1.653-1.524l3.13-1.808c.2-.115.3-.077.3.113V102a.515.515 0 0 1-.3.457l-1.137.656c-.19.11-.284.07-.284-.12v-.448a3.23 3.23 0 0 1-.583.886 3.517 3.517 0 0 1-.805.64zm1.383-3.317V98c0-.1-.054-.117-.164-.054l-1.273.734a1.686 1.686 0 0 0-.61.535 1.348 1.348 0 0 0-.176.72v2.33q0 .433.176.513c.117.054.321 0 .61-.169l.5-.288a1.717 1.717 0 0 0 .932-1.567zm4.335 2.307l-.867.5c-.18.1-.27.056-.27-.143v-.907a.5.5 0 0 1 .27-.455l.284-.164a3.842 3.842 0 0 0 1.158-.9 3.059 3.059 0 0 0 .469-1.186l-.718.415c-.173.1-.286.07-.34-.089l-1.585-5.059q-.081-.239.2-.4l1.205-.7c.181-.105.293-.075.338.089l1.167 4.325c.054-.03 1.205-5.695 1.205-5.695a.657.657 0 0 1 .337-.481l1.139-.656c.225-.131.314-.082.27.141l-1.653 7.568a6.784 6.784 0 0 1-.921 2.237 4.969 4.969 0 0 1-1.693 1.56z" transform="translate(-1384.928 -81.225)"/>
        </g>
    </g>
</svg>
